<?xml version="1.0" standalone="no"?>
<!DOCTYPE svg PUBLIC "-//W3C//DTD SVG 1.1//EN" "http://www.w3.org/Graphics/SVG/1.1/DTD/svg11.dtd" >
<svg xmlns="http://www.w3.org/2000/svg">
<metadata></metadata>
<defs>
<font id="mrseavesitalicregular" horiz-adv-x="778" >
<font-face units-per-em="2048" ascent="1638" descent="-410" />
<missing-glyph horiz-adv-x="358" />
<glyph horiz-adv-x="2048" />
<glyph horiz-adv-x="2048" />
<glyph unicode="&#xd;" horiz-adv-x="358" />
<glyph unicode=" "  horiz-adv-x="358" />
<glyph unicode="&#x09;" horiz-adv-x="358" />
<glyph unicode="&#xa0;" horiz-adv-x="358" />
<glyph unicode="!" horiz-adv-x="614" d="M139 82q8 41 41 69.5t74 28.5q39 0 63.5 -28.5t16.5 -69.5q-6 -41 -39 -69.5t-76 -28.5q-41 0 -63.5 28.5t-16.5 69.5zM246 328q37 250 54 454.5t32 380.5q8 41 39.5 71t72.5 30t66 -29t16 -72q-47 -158 -101 -357.5t-112 -477.5h-67z" />
<glyph unicode="&#x22;" horiz-adv-x="741" d="M256 1163q8 41 40 71t73 30t65.5 -29t16.5 -72q-39 -78 -78 -164t-68 -194h-33q6 66 7 113q0 84 -12.5 158.5t-10.5 86.5zM598 1163q8 41 40 71t73 30t65.5 -29t16.5 -72q-39 -78 -79 -165t-67 -193h-35q6 72 6 123q0 74 -11 145.5t-9 89.5z" />
<glyph unicode="#" horiz-adv-x="890" d="M100 537l39 106h158l80 227h-158l37 109h160l86 250h82l-86 -250h215l88 250h82l-88 -250h161l-38 -109h-160l-80 -227h160l-37 -106h-160l-86 -252h-82l86 252h-217l-86 -252h-82l88 252h-162zM379 643h217l80 227h-217z" />
<glyph unicode="$" horiz-adv-x="1019" d="M106 236q2 20 20.5 36.5t39.5 16.5q51 -57 105.5 -109.5t140.5 -64.5l84 477l-88 53q-76 47 -118 99.5t-42 127.5q0 12 11 85t111.5 155t229.5 82l39 205h74l-39 -207q115 -12 180 -64.5t59 -101.5q-4 -23 -20 -38t-39 -15q-25 0 -71 62.5t-121 74.5l-74 -414l131 -75 q68 -39 108.5 -97.5t40.5 -126.5q0 -20 -14 -98t-129 -172t-256 -94l-35 -203h-74l37 207q-139 0 -220 67.5t-71 131.5zM369 907q0 -78 151 -174l68 379q-78 -6 -139.5 -53t-75.5 -121q-4 -20 -4 -31zM483 111q94 0 167 58.5t89 152.5q2 8 2 24q0 57 -47 111.5t-133 97.5z " />
<glyph unicode="%" horiz-adv-x="1562" d="M236 920v24q4 16 15 82t114.5 152t230.5 86q115 0 186.5 -70t71.5 -176v-25q-4 -16 -14.5 -80.5t-114.5 -150.5t-231 -86q-113 0 -185.5 68.5t-72.5 175.5zM301 0l1008 1266l67 -37l-1009 -1266zM356 901q0 -78 35 -122t113 -44q90 0 147.5 65.5t69.5 135.5t12 104 q0 76 -35.5 120t-111.5 44q-90 0 -147.5 -65.5t-70 -135t-12.5 -102.5zM821 213v25q4 16 15.5 80.5t116 150.5t231.5 86q111 0 184.5 -69.5t73.5 -174.5v-24q-4 -16 -15.5 -81t-116 -152t-229.5 -87q-113 0 -186.5 69.5t-73.5 176.5zM942 197q0 -78 37 -124t113 -46 q90 0 147 65.5t69.5 135t12.5 100.5q0 78 -35.5 123t-111.5 45q-90 0 -148.5 -64.5t-71 -134.5t-12.5 -100z" />
<glyph unicode="&#x26;" horiz-adv-x="1161" d="M123 248q0 35 12 105.5t83 148.5t181 153q-49 141 -49 246q0 33 15.5 117t117 165t215.5 81q106 0 166 -57.5t60 -149.5q0 -14 -7.5 -56.5t-37 -90.5t-82.5 -87l-35 64q23 29 37 62.5t18 59t4 38.5q0 59 -34.5 94t-94.5 35q-78 0 -131 -52.5t-61 -97.5t-10.5 -71.5 t-2.5 -51.5q0 -127 59.5 -269t194.5 -370q16 33 54.5 118t50.5 116q31 61 75 96t105 35q80 0 116 -45t27 -90q-4 -27 -21.5 -47.5t-45.5 -20.5q-43 0 -53.5 68.5t-51.5 68.5q-37 0 -65.5 -32.5t-70.5 -128t-85 -191.5l21 -37q37 -59 79 -93t82 -34q23 0 54.5 17.5t70.5 54.5 l25 -35q-92 -119 -201 -119q-59 0 -108 36t-97 103q-57 -66 -128.5 -102.5t-157.5 -36.5q-127 0 -210 72t-83 211zM256 252q0 -86 53 -146.5t158 -60.5q61 0 110.5 26.5t94.5 82.5q-80 127 -142.5 233.5t-99.5 192.5q-68 -59 -111 -129t-53 -127.5t-10 -71.5z" />
<glyph unicode="'" horiz-adv-x="399" d="M256 1163q8 41 40 71t73 30t65.5 -29t16.5 -72q-39 -78 -78 -164t-68 -194h-33q6 66 7 113q0 84 -12.5 158.5t-10.5 86.5z" />
<glyph unicode="(" horiz-adv-x="733" d="M211 451q0 47 2 73.5t28.5 177t183.5 353t404 381.5l41 -43q-178 -166 -318 -351.5t-170 -350.5t-30 -247q0 -197 71 -345t169 -283l-53 -43q-152 145 -240 315t-88 363z" />
<glyph unicode=")" horiz-adv-x="733" d="M-27 -184q178 166 318.5 351t170.5 350t30 247q0 197 -71 346.5t-169 282.5l55 43q152 -145 239 -313.5t87 -364.5q0 -47 -2 -74t-29 -177.5t-183.5 -354t-404.5 -379.5z" />
<glyph unicode="*" horiz-adv-x="833" d="M150 715q0 23 14 45t37 35q78 18 151.5 35.5t145.5 50.5q-55 33 -126 50.5t-141 35.5q-27 18 -26 53q0 27 24.5 59.5t71.5 32.5q18 0 35 -10q41 -59 82 -108.5t94 -86.5q6 41 6 78q0 51 -11 117.5t-9 81.5q6 33 31.5 56.5t58.5 23.5q31 0 51 -25t12 -55 q-35 -72 -66.5 -143.5t-45.5 -133.5q66 35 125 87.5t120 105.5q20 10 39 10q45 0 56.5 -25.5t11.5 -35.5q0 -55 -53 -84q-80 -18 -151 -34t-142 -50q55 -31 123.5 -49.5t138.5 -34.5q29 -18 29 -56q0 -27 -25 -58.5t-72 -31.5q-18 0 -34 11q-41 57 -83 108t-94 86 q-6 -41 -6 -74q0 -55 13.5 -123.5t11.5 -80.5q-6 -33 -34 -56.5t-60 -23.5q-31 0 -49.5 24.5t-12.5 55.5q35 74 66.5 144.5t44.5 133.5q-59 -35 -122 -88t-122 -106q-20 -10 -41 -11q-47 0 -57 25.5t-10 38.5z" />
<glyph unicode="+" horiz-adv-x="937" d="M127 426l14 90h322l55 320h92l-57 -320h324l-17 -90h-321l-58 -324h-90l55 324h-319z" />
<glyph unicode="," horiz-adv-x="512" d="M29 -233q123 109 155 217h-16q-41 0 -63.5 28.5t-16.5 69.5q8 41 41 69.5t74 28.5t65.5 -23.5t24.5 -74.5q0 -20 -8.5 -63.5t-73 -132.5t-164.5 -144z" />
<glyph unicode="-" horiz-adv-x="937" d="M188 391l15 90h598l-17 -90h-596z" />
<glyph unicode="." horiz-adv-x="512" d="M88 82q8 41 41 69.5t74 28.5q39 0 63.5 -28.5t16.5 -69.5q-6 -41 -39 -69.5t-76 -28.5q-41 0 -63.5 28.5t-16.5 69.5z" />
<glyph unicode="/" horiz-adv-x="712" d="M-23 0l805 1266l66 -37l-803 -1266z" />
<glyph unicode="0" horiz-adv-x="1081" d="M147 348v39t20.5 134t168 259.5t315.5 141.5q150 0 244 -108.5t94 -274.5v-58q-6 -25 -23.5 -129t-165 -245.5t-317.5 -141.5q-147 0 -241.5 108.5t-94.5 274.5zM281 317q0 -125 53 -199.5t164 -74.5q133 0 224 112.5t112.5 233.5t21.5 180q0 127 -53 202t-164 75 q-133 0 -223 -112.5t-112.5 -234.5t-22.5 -182z" />
<glyph unicode="1" horiz-adv-x="724" d="M86 0l6 43q104 0 141 43t64 197l57 313q12 66 13 106q0 74 -37 94.5t-135 20.5l8 43l336 68l-113 -645q-8 -49 -12 -79t-4 -59q0 -61 29.5 -81.5t105.5 -20.5l-6 -43h-453z" />
<glyph unicode="2" horiz-adv-x="976" d="M96 0l8 49l443 336q156 119 168 194.5t12 88.5q0 84 -55.5 126t-136.5 42q-74 0 -140.5 -51.5t-75 -95.5t-8.5 -68q0 -47 23 -93l-68 -63q-82 63 -82 153q0 12 11.5 78t115 146t254.5 80q129 0 217 -63.5t88 -168.5q0 -14 -12 -80.5t-78.5 -133t-134.5 -116.5l-326 -241 h478l-101 -281h-43q6 37 6 66q0 57 -44 76.5t-171 19.5h-348z" />
<glyph unicode="3" horiz-adv-x="962" d="M49 -156q10 51 57 52q14 0 61.5 -100.5t192.5 -100.5q94 0 171 67.5t91.5 149.5t14.5 113q0 180 -162 211q-39 -43 -62.5 -70t-50.5 -27q-18 0 -30.5 12.5t-7.5 32.5q4 18 15 35t34 33l174 133q72 55 117 109.5t54 107.5t9 66q0 82 -50 125t-126 43q-88 0 -155.5 -53.5 t-77 -102.5t-9.5 -59q0 -25 6.5 -45.5t18.5 -47.5l-68 -63q-82 63 -82 153q0 12 11.5 78t115 146t254.5 80q129 0 217 -63.5t88 -168.5q0 -14 -11 -79.5t-79.5 -133t-136.5 -117.5l-94 -71q113 -27 173 -99.5t60 -173.5q0 -27 -15 -111.5t-141 -186t-274 -101.5 q-147 0 -230 78t-73 149z" />
<glyph unicode="4" horiz-adv-x="1036" d="M47 86l8 39l668 883h45l-147 -848h61q100 0 136 31.5t69 123.5l14 41h33l-62 -270h-266l-26 -154q-8 -47 -12.5 -80.5t-4.5 -62.5q0 -55 25.5 -74.5t95.5 -19.5l-6 -43h-426l6 43q96 0 131 42t62 195l26 154h-430zM164 160h328l98 563z" />
<glyph unicode="5" horiz-adv-x="942" d="M31 -147q6 43 53 43q18 0 61 -100.5t170 -100.5q115 0 197 99.5t101.5 211t19.5 172.5q0 100 -41 154.5t-135 54.5q-76 0 -146.5 -50t-99.5 -153h-68l183 703h317q121 0 162 30.5t82 124.5h33l-95 -282h-467l-96 -379q37 41 101.5 65.5t123.5 24.5q135 0 211 -91t76 -239 v-57q-6 -27 -23.5 -121t-153.5 -220t-294 -126q-133 0 -209 80t-63 156z" />
<glyph unicode="6" horiz-adv-x="999" d="M154 348q0 86 34.5 284.5t185 418t351.5 219.5q111 0 182.5 -51.5t61.5 -106.5q-10 -51 -62 -51q-16 0 -65 71.5t-127 71.5q-139 0 -233.5 -169t-147.5 -423q45 55 107.5 88t138.5 33q135 0 223 -90t88 -225q0 -33 -17.5 -130.5t-146.5 -210t-283 -112.5 q-113 0 -201.5 87t-88.5 296zM297 317q0 -156 50.5 -213t111.5 -57q115 0 186.5 89t83.5 163t15.5 94.5t3.5 42.5q0 96 -44.5 155.5t-138.5 59.5q-82 0 -154.5 -43t-97.5 -108q-8 -43 -12 -93.5t-4 -89.5z" />
<glyph unicode="7" horiz-adv-x="886" d="M125 -330q0 31 25 74l626 1032h-309q-119 0 -161 -30.5t-79 -124.5l-16 -41h-39l162 487h39q-6 -41 -6 -68q0 -57 39.5 -75.5t152.5 -18.5h328l-8 -57l-607 -1131q-25 -49 -47 -74.5t-49 -25.5q-6 0 -28.5 6t-22.5 47z" />
<glyph unicode="8" horiz-adv-x="999" d="M127 258q0 31 15.5 112t102.5 161.5t222 140.5q-72 55 -115 119.5t-43 140.5l4 47q23 127 125.5 206t233.5 79q117 0 190.5 -62.5t73.5 -171.5q0 -23 -11.5 -81t-87 -125.5t-192.5 -123.5q109 -70 173.5 -142.5t64.5 -178.5q0 -29 -6 -60q-25 -152 -152 -253t-283 -101 q-137 0 -226 81t-89 212zM256 250q0 -86 51 -145.5t150 -59.5q113 0 190.5 77t95.5 169q4 33 5 47q0 92 -54.5 150.5t-175.5 146.5q-102 -59 -169 -135t-87 -201q-6 -25 -6 -49zM442 958q0 -74 41 -126t113 -99q80 45 137.5 112.5t71.5 147.5q2 12 2 37q0 66 -37 110 t-113 44q-82 0 -139 -57.5t-66.5 -105.5t-9.5 -63z" />
<glyph unicode="9" horiz-adv-x="999" d="M88 -225q6 53 59 53q16 0 65.5 -71.5t127.5 -71.5q141 0 234.5 166.5t148.5 422.5q-43 -51 -108.5 -85.5t-137.5 -34.5q-135 0 -223 90t-88 227q0 33 16.5 129t145.5 209t282 113q115 0 204 -86t89 -293q0 -90 -36 -291t-184 -418t-351 -217q-111 0 -182.5 51t-61.5 107z M309 453q0 -96 43 -156.5t137 -60.5q84 0 156 43t98 108q14 100 15 182q0 156 -50.5 213.5t-109.5 57.5q-115 0 -186.5 -87t-87 -173t-15.5 -127z" />
<glyph unicode=":" horiz-adv-x="512" d="M106 82q8 41 41 69.5t74 28.5q39 0 63.5 -28.5t16.5 -69.5q-6 -41 -41 -69.5t-76 -28.5q-39 0 -61.5 28.5t-16.5 69.5zM176 471q6 41 39 69.5t74 28.5q39 0 63.5 -28.5t18.5 -69.5q-8 -41 -43 -69.5t-76 -28.5q-39 0 -61.5 28.5t-14.5 69.5z" />
<glyph unicode=";" horiz-adv-x="512" d="M47 -233q63 57 99 108t55 109h-17q-39 0 -61.5 28.5t-16.5 69.5q8 41 41 69.5t74 28.5q39 0 63.5 -24.5t24.5 -73.5q0 -20 -7 -63.5t-71.5 -131.5t-164.5 -145zM176 471q6 41 39 69.5t74 28.5q39 0 63.5 -28.5t18.5 -69.5q-8 -41 -43 -69.5t-76 -28.5q-39 0 -61.5 28.5 t-14.5 69.5z" />
<glyph unicode="&#x3c;" horiz-adv-x="1024" d="M217 549l752 444l24 -35l-547 -409l402 -410l-35 -37z" />
<glyph unicode="=" horiz-adv-x="937" d="M170 289l16 90h598l-16 -90h-598zM215 545l16 90h598l-16 -90h-598z" />
<glyph unicode="&#x3e;" horiz-adv-x="1024" d="M121 139l551 410l-406 409l37 35l596 -444l-752 -447z" />
<glyph unicode="?" horiz-adv-x="1007" d="M315 987q0 12 10.5 72.5t107.5 132.5t245 72q117 0 202 -63.5t85 -168.5q0 -14 -13.5 -93t-78 -124t-231.5 -135t-174 -129t-7 -51q0 -39 28.5 -61.5t73.5 -22.5q59 0 137 45v-53q-29 -18 -79 -36t-89 -18q-57 0 -104 36t-47 106q0 12 10 72.5t219 193.5t219.5 187.5 t10.5 62.5v12q0 63 -49.5 107.5t-139.5 44.5q-78 0 -143.5 -47.5t-71.5 -86t-6 -59.5q0 -31 16 -70l-90 -41q-41 49 -41 115zM354 82q8 41 41 69.5t72 28.5q41 0 65.5 -28.5t16.5 -69.5t-41 -69.5t-76 -28.5q-41 0 -63.5 28.5t-14.5 69.5z" />
<glyph unicode="@" horiz-adv-x="1449" d="M78 508q0 37 14 194.5t243.5 368.5t528.5 211q231 0 379 -133t148 -350q-2 -25 -2 -37v-19q-18 -195 -155.5 -349t-270.5 -154q-55 0 -88 30.5t-39 73.5q-37 -47 -99.5 -80t-111.5 -33q-96 0 -147.5 65.5t-51.5 176.5q0 63 29.5 176t150.5 223.5t250 110.5q39 0 66.5 -7 t62.5 -28h115l-137 -512q-10 -41 -11 -61q0 -61 66 -62q84 0 185.5 132t117.5 294q2 18 2 52q0 193 -125 302t-311 109q-258 0 -453.5 -189.5t-218.5 -443.5q0 -260 129 -411.5t365 -151.5q117 0 227.5 34t216.5 99l21 -39q-125 -84 -249 -123.5t-239 -39.5 q-262 0 -435 162.5t-173 408.5zM555 463q0 -74 26.5 -112t86.5 -38q57 0 116.5 55.5t81.5 135.5l95 362q-12 18 -44 35t-77 17q-86 0 -157 -88.5t-99.5 -199t-28.5 -167.5z" />
<glyph unicode="A" horiz-adv-x="989" d="M-96 0l8 43q82 0 119 31.5t96 146.5l520 1043h39l156 -1043q18 -117 41.5 -147.5t107.5 -30.5l-6 -43h-436l8 43q84 0 118 24.5t34 86.5q0 12 -4 45l-33 227h-363l-114 -227q-29 -61 -29 -93q0 -63 123 -63l-6 -43h-379zM348 502h314l-72 483z" />
<glyph unicode="B" horiz-adv-x="987" d="M16 0l9 43q94 0 129.5 44t62.5 196l117 665q8 49 12 80t4 62q0 59 -26.5 77.5t-96.5 18.5l6 43h445q123 0 193.5 -68.5t70.5 -181.5q0 -27 -9 -80t-59.5 -119.5t-117.5 -111.5q74 -35 118 -103.5t44 -158.5q-1 -31 -7 -62q-27 -147 -139.5 -245.5t-267.5 -98.5h-488z M338 170q0 -55 25.5 -74.5t95.5 -19.5h30q98 0 177.5 76.5t99.5 191.5q6 31 6 59q0 92 -50 152.5t-136 60.5h-178l-54 -303q-8 -45 -12 -79.5t-4 -63.5zM420 692h127q86 0 156.5 65.5t81 131t10.5 82.5q0 80 -45 131t-121 51h-127z" />
<glyph unicode="C" horiz-adv-x="1105" d="M174 465q0 72 29.5 245t202 363.5t366.5 190.5q162 0 256 -174q14 12 30.5 42.5t33.5 73.5h41l-80 -450h-43q0 203 -62.5 315.5t-185.5 112.5q-154 0 -266.5 -175t-140 -332t-27.5 -243q0 -166 57 -276.5t176 -110.5q125 0 230.5 113.5t169.5 312.5h43l-80 -450h-43 q0 27 -1 62.5t-20 53.5q-72 -82 -154.5 -128t-162.5 -46q-164 0 -266.5 141.5t-102.5 358.5z" />
<glyph unicode="D" horiz-adv-x="1138" d="M16 0l9 43q94 0 129.5 44t62.5 196l117 665q8 49 12 80t4 62q0 59 -26.5 77.5t-96.5 18.5l6 43h429q213 0 316 -121t103 -328q0 -74 -30.5 -255t-189.5 -353t-415 -172h-430zM336 168q0 -53 25.5 -72.5t91.5 -19.5q209 0 314 155.5t129 290.5t30 191.5t6 103.5 q0 154 -63.5 245t-221.5 91h-145l-148 -840q-18 -96 -18 -145z" />
<glyph unicode="E" horiz-adv-x="917" d="M16 0l9 43q94 0 129.5 44t62.5 196l117 665q8 49 12 80t4 62q0 59 -26.5 77.5t-96.5 18.5l6 43h713l-35 -271h-32v41q0 88 -26 121t-126 33h-225l-82 -465h76q117 0 153.5 34t59.5 163h32l-82 -469h-32q12 66 12 102q0 57 -34 75.5t-124 18.5h-75l-52 -299 q-8 -45 -12 -79.5t-4 -63.5q0 -55 25.5 -74.5t95.5 -19.5h131q100 0 136 31.5t69 123.5l14 41h33l-62 -272h-764z" />
<glyph unicode="F" horiz-adv-x="843" d="M16 0l9 43q94 0 129.5 44t62.5 196l117 665q8 49 12 80t4 62q0 59 -26.5 77.5t-96.5 18.5l6 43h738l-33 -271h-33v41q0 88 -25.5 121t-125.5 33h-252l-82 -465h76q117 0 153.5 34t59.5 163h32l-82 -469h-32q12 66 12 102q0 57 -34 75.5t-124 18.5h-75l-58 -329 q-8 -45 -12 -80t-4 -64q0 -59 26.5 -77.5t96.5 -18.5l-9 -43h-430z" />
<glyph unicode="G" horiz-adv-x="1157" d="M174 465q0 71 12 149q47 268 219.5 459t366.5 191q162 0 256 -174q14 12 30.5 42.5t33.5 73.5h41l-80 -450h-43q0 203 -62.5 315.5t-185.5 112.5q-154 0 -268.5 -176.5t-138 -305.5t-27.5 -169.5t-4 -88.5q0 -170 62.5 -283.5t193.5 -113.5q117 0 199.5 73t96 154.5 t13.5 94.5q0 98 -129 98l8 41h420l-8 -41q-94 0 -128 -43t-63 -197l-28 -155q-61 0 -180 -53.5t-238 -53.5q-164 0 -266.5 141.5t-102.5 358.5z" />
<glyph unicode="H" horiz-adv-x="1218" d="M16 0l9 43q94 0 129.5 44t62.5 196l117 665q8 49 12 80t4 62q0 59 -26.5 77.5t-96.5 18.5l6 43h431l-7 -43q-98 0 -130.5 -41t-59.5 -197l-47 -258h518l47 258q8 49 12 79t4 60q0 59 -26.5 79t-97.5 20l8 43h430l-8 -43q-96 0 -129 -41t-62 -197l-117 -665 q-8 -45 -12 -80t-4 -64q0 -57 25.5 -76.5t95.5 -19.5l-6 -43h-430l6 43q96 0 131 43t61 197l60 331h-520l-58 -331q-8 -45 -12 -80t-4 -64q0 -59 26.5 -77.5t96.5 -18.5l-9 -43h-430z" />
<glyph unicode="I" horiz-adv-x="567" d="M16 0l9 43q94 0 129.5 44t62.5 196l117 665q8 49 12 80t4 62q0 59 -26.5 77.5t-96.5 18.5l6 43h431l-7 -43q-98 0 -130.5 -41t-59.5 -197l-119 -665q-8 -45 -12 -80t-4 -64q0 -59 26.5 -77.5t96.5 -18.5l-9 -43h-430z" />
<glyph unicode="J" horiz-adv-x="565" d="M-219 -305q14 53 67 53q39 0 58.5 -71.5t81.5 -71.5q57 0 95 59.5t67 224.5l184 1059q8 49 12 80t4 62q0 59 -26.5 77.5t-96.5 18.5l6 43h431l-7 -43q-98 0 -130.5 -41t-59.5 -197l-186 -1059q-31 -174 -117 -260t-197 -86q-92 0 -143 51q-44 43 -44 87q0 7 1 14z" />
<glyph unicode="K" horiz-adv-x="1075" d="M16 0l9 43q94 0 129.5 44t62.5 196l117 665q8 49 12 80t4 62q0 59 -26.5 77.5t-96.5 18.5l6 43h431l-7 -43q-98 0 -130.5 -41t-59.5 -197l-59 -332l178 234q172 225 268 300t186 75q63 0 97 -42q28 -34 28 -71q0 -9 -2 -18q-6 -27 -22.5 -45.5t-40.5 -18.5 q-37 0 -49.5 50t-51.5 50q-109 0 -370 -323l-107 -131q41 12 76 12q113 0 150.5 -93t78.5 -323l27 -141q6 -43 16.5 -63.5t30.5 -20.5q18 0 42 14.5t40 30.5v-47q-72 -72 -135 -72q-55 0 -96 41t-41 103l-13 139q0 164 -33.5 261t-115.5 97q-49 0 -90 -32.5t-74 -94.5 l-37 -204q-8 -45 -12 -80t-4 -64q0 -59 26.5 -77.5t96.5 -18.5l-9 -43h-430z" />
<glyph unicode="L" horiz-adv-x="901" d="M16 0l9 43q94 0 129.5 44t62.5 196l117 665q8 49 12 80t4 62q0 59 -26.5 77.5t-96.5 18.5l6 43h431l-7 -43q-98 0 -130.5 -41t-59.5 -197l-113 -635q-8 -45 -12 -79.5t-4 -63.5q0 -55 25.5 -74.5t95.5 -19.5h182q100 0 136 31.5t69 123.5l14 41h33l-62 -272h-815z" />
<glyph unicode="M" horiz-adv-x="1413" d="M6 0l8 43q88 0 123 49t70 191l168 665q20 76 20 129q0 109 -127 109l6 43h291l144 -975l487 975h272l-8 -43q-94 0 -136 -52.5t-54 -185.5l-66 -665q-10 -78 -10 -121q0 -66 24.5 -92.5t90.5 -26.5l-6 -43h-429l7 43q94 0 137 56.5t53 183.5l76 700l-512 -1018h-21 l-151 1051l-180 -733q-18 -78 -19 -127q0 -61 27.5 -87t95.5 -26l-6 -43h-375z" />
<glyph unicode="N" horiz-adv-x="1253" d="M-27 88q4 27 19.5 43t42.5 16q35 0 45 -50t49 -50t73 64.5t64 240.5l107 596q8 49 12 79t4 60q0 59 -26.5 79t-98.5 20l8 43h244l402 -942l102 585q39 227 98.5 309.5t153.5 82.5q61 0 93 -40q26 -32 26 -66q0 -8 -2 -17q-4 -27 -19.5 -43.5t-42.5 -16.5q-37 0 -45 50.5 t-47 50.5q-51 0 -83 -84t-56 -221l-162 -912h-37l-440 1039l-113 -648q-41 -225 -101.5 -308t-154.5 -83q-61 0 -92 39q-25 31 -25 66q0 9 2 18z" />
<glyph unicode="O" horiz-adv-x="1286" d="M174 477q0 66 29.5 236t213 360.5t396.5 190.5q182 0 296 -144.5t114 -365.5q0 -68 -30 -238t-213 -360.5t-396 -190.5q-182 0 -296 144.5t-114 367.5zM330 449q0 -174 64.5 -288t205.5 -114q176 0 295 172t145.5 330t26.5 242q0 170 -64.5 281.5t-203.5 111.5 q-172 0 -293 -174t-144.5 -304.5t-27.5 -173.5t-4 -83z" />
<glyph unicode="P" horiz-adv-x="872" d="M16 0l9 43q94 0 129.5 44t62.5 196l117 665q8 49 12 80t4 62q0 59 -26.5 77.5t-96.5 18.5l6 43h402q135 0 213 -78t78 -201q0 -32 -6 -67q-25 -147 -136.5 -245.5t-269.5 -98.5h-119l-47 -256q-8 -45 -12 -80t-4 -64q0 -59 26.5 -77.5t96.5 -18.5l-9 -43h-430zM406 612 h92q98 0 178 78t98 193q6 31 6 59q0 92 -50 151.5t-136 59.5h-92z" />
<glyph unicode="Q" horiz-adv-x="1286" d="M131 -258q10 51 111.5 126t234.5 114q-141 45 -222 177t-81 314q0 68 29.5 239t213 361.5t396.5 190.5q182 0 296 -144.5t114 -365.5q0 -68 -29 -232t-199 -348t-306 -200.5t-204.5 -41.5t-152.5 -82q43 12 88 18.5t80 6.5q129 0 311 -122t283 -122q129 0 219 55.5 t157 155.5l29 -12q-61 -125 -184 -223.5t-281 -98.5q-133 0 -316 151t-272 151q-109 0 -172 -66t-79 -66q-65 0 -65 50q0 6 1 14zM328 446q0 -170 66.5 -284.5t205.5 -114.5q174 0 295 174t147.5 327.5t26.5 237.5q0 172 -65.5 285t-204.5 113q-174 0 -295 -173t-148.5 -329 t-27.5 -236z" />
<glyph unicode="R" horiz-adv-x="966" d="M16 0l9 43q94 0 129.5 44t62.5 196l117 665q8 49 12 80t4 62q0 59 -26.5 77.5t-96.5 18.5l6 43h402q135 0 213 -78t78 -201q0 -33 -13.5 -110.5t-96.5 -169.5t-198 -121q45 -33 74 -89.5t41 -121.5l35 -207q14 -84 47 -84q18 0 42 14.5t40 30.5v-47q-27 -31 -72 -51.5 t-84 -20.5q-57 0 -94 35t-37 109l-10 207q-8 92 -41 153.5t-94 61.5h-70l-47 -256q-8 -45 -12 -80t-4 -64q0 -59 26.5 -77.5t96.5 -18.5l-9 -43h-430zM406 612h92q98 0 178 78t98 193q6 31 6 59q0 92 -50 151.5t-136 59.5h-92z" />
<glyph unicode="S" horiz-adv-x="854" d="M47 -35l80 451h43q-2 -25 -3 -43.5t-1 -28.5q0 -135 63.5 -216t194.5 -81q72 0 139.5 56.5t78.5 121t11 76.5q0 61 -37.5 117.5t-132.5 128.5l-116 86q-55 43 -92 105.5t-37 148.5q0 33 14 115.5t105.5 172t211.5 89.5q66 0 108 -22.5t79 -61.5q16 16 33.5 38.5 t29.5 55.5h41l-80 -451h-43q6 49 6 103q0 117 -38.5 186.5t-139.5 69.5q-72 0 -132 -52.5t-69.5 -105.5t-9.5 -63q0 -61 35 -111.5t98 -95.5l127 -90q158 -113 158 -285q0 -27 -17.5 -122t-126 -193.5t-237.5 -98.5q-80 0 -126 27.5t-103 79.5q-23 -20 -42.5 -47t-31.5 -60 h-41z" />
<glyph unicode="T" horiz-adv-x="927" d="M119 995l82 234h620q135 0 180.5 30.5t83.5 124.5h48l-82 -233h-371l-154 -868q-8 -45 -12 -80t-4 -64q0 -57 25.5 -76.5t95.5 -19.5l-6 -43h-430l6 43q96 0 132 43t62 197l154 868h-121q-133 0 -178 -31t-86 -125h-45z" />
<glyph unicode="U" horiz-adv-x="1193" d="M229 1186l7 43h428l-7 -43q-98 0 -130.5 -41t-59.5 -197l-90 -502q-12 -72 -12 -124q0 -131 58 -198t163 -67q119 0 210 98.5t124 290.5l90 502q8 49 12 80t4 62q0 59 -26.5 77.5t-96.5 18.5l6 43h383l-6 -43q-98 0 -130.5 -41t-61.5 -197l-86 -491 q-41 -231 -173.5 -361.5t-295.5 -130.5q-135 0 -219 93.5t-84 263.5q0 61 12 135l86 491q8 47 12 81t4 63q0 55 -25.5 74.5t-95.5 19.5z" />
<glyph unicode="V" horiz-adv-x="989" d="M113 1186l6 43h436l-6 -43q-156 0 -156 -115q0 -12 4 -41l119 -786l391 786q31 59 31 92q0 63 -123 64l8 43h377l-6 -43q-82 0 -121 -32.5t-94 -145.5l-522 -1043h-41l-154 1043q-16 117 -39.5 147.5t-109.5 30.5z" />
<glyph unicode="W" horiz-adv-x="1374" d="M113 1186l6 43h438l-8 -43q-82 0 -117 -29t-35 -92q0 -23 2 -35l74 -743l422 942h35l94 -946l336 747q29 63 29 94q0 61 -121 62l8 43h377l-8 -43q-82 0 -122 -33t-93 -145l-472 -1043h-38l-93 940l-421 -940h-41l-103 1043q-10 113 -35.5 145.5t-113.5 32.5z" />
<glyph unicode="X" horiz-adv-x="987" d="M-68 0l9 43q72 0 130 47t124 131l297 389l-134 398q-31 90 -71.5 134t-116.5 44l6 43h434l-6 -43q-125 0 -125 -82q0 -12 4 -30.5t11 -43.5l98 -287l221 287q51 63 51 103q0 53 -104 53l6 43h377l-8 -43q-84 0 -130.5 -39t-123.5 -139l-260 -344l147 -443q33 -92 73 -135 t117 -43l-8 -43h-436l6 43q127 0 127 80q0 31 -16 76l-113 333l-256 -333q-45 -59 -45 -97q0 -29 22.5 -44t75.5 -15l-6 -43h-377z" />
<glyph unicode="Y" horiz-adv-x="956" d="M180 1130v48q35 37 77 54t81 17q117 0 167 -135t50 -469q104 289 207.5 445.5t222.5 156.5q61 0 93 -40q26 -32 26 -66q0 -8 -2 -17q-6 -27 -20.5 -42t-41.5 -15q-37 0 -51 49t-51 49q-88 0 -220 -273.5t-171 -498.5l-21 -110q-8 -45 -12 -80t-4 -64q0 -57 25.5 -76.5 t95.5 -19.5l-6 -43h-435l9 43q94 0 130 44t62 196l19 102q23 121 31 214t8 183q0 201 -48.5 298.5t-119.5 97.5q-23 0 -53.5 -16.5t-47.5 -31.5z" />
<glyph unicode="Z" horiz-adv-x="884" d="M27 29q0 12 7 52t156.5 229.5t341 396t316.5 317.5q-74 -27 -131 -27q-68 0 -171.5 63.5t-154.5 63.5q-41 0 -73.5 -24.5t-100.5 -89.5l-18 10q47 98 109.5 162.5t131.5 64.5q88 0 199 -87t160 -87q59 0 104 55q43 59 88 119q33 0 33 -35q0 -14 -4 -36.5t-43 -75.5 t-158 -176t-293 -335t-258 -358q23 6 46.5 8.5t50.5 2.5q164 0 291.5 -214t234.5 -214q68 0 130 36.5t134 100.5l27 -23q-84 -123 -167.5 -191.5t-189.5 -68.5t-192 129q-63 121 -132 245t-147 124q-94 0 -155 -57q-63 -72 -125 -142q-6 -1 -11 -1q-36 0 -36 63z" />
<glyph unicode="[" horiz-adv-x="733" d="M156 -180l276 1569h414l-10 -66h-281l-254 -1438h281l-13 -65h-413z" />
<glyph unicode="\" horiz-adv-x="712" d="M90 1229l80 37l563 -1266l-82 -37z" />
<glyph unicode="]" horiz-adv-x="733" d="M-4 -180l12 65h283l254 1438h-283l10 66h416l-276 -1569h-416z" />
<glyph unicode="^" horiz-adv-x="993" d="M156 692l512 572l311 -572l-43 -30l-307 372l-443 -372z" />
<glyph unicode="_" horiz-adv-x="733" d="M-68 -90l15 90h737l-14 -90h-738z" />
<glyph unicode="`" horiz-adv-x="827" d="M197 1169q4 23 22.5 41.5t44.5 18.5q29 0 48.5 -15.5t33.5 -31.5l160 -181l-12 -12l-263 119q-20 12 -29 28.5t-5 32.5z" />
<glyph unicode="a" d="M70 248v57q6 25 21 108t126 193.5t240 110.5q70 0 133 -35h112l-96 -551q-4 -29 -4 -41q0 -43 27 -43q16 0 39.5 14.5t42.5 30.5v-47q-72 -72 -136 -72q-90 0 -90 95q-39 -45 -92 -74t-102 -29q-106 0 -163.5 78t-57.5 205zM199 231q0 -86 31.5 -135t97.5 -49 q59 0 113.5 54.5t68.5 136.5l63 362q-18 18 -51 34.5t-76 16.5q-86 0 -149.5 -89t-80.5 -184t-17 -147z" />
<glyph unicode="b" horiz-adv-x="753" d="M106 190q0 10 2.5 22.5t2.5 18.5l122 699q18 102 19 153q0 51 -21.5 68.5t-74.5 17.5l6 43l244 52l-111 -639q37 37 90 64.5t96 27.5q104 0 162.5 -76t58.5 -199q0 -43 -18 -149.5t-129 -217t-242 -110.5q-106 0 -156.5 68.5t-50.5 156.5zM221 182q0 -68 34 -104.5 t79 -36.5q86 0 145.5 84t75.5 183.5t16 142.5q0 86 -29.5 135t-95.5 49q-59 0 -114.5 -53.5t-69.5 -135.5l-35 -208q-6 -31 -6 -56z" />
<glyph unicode="c" horiz-adv-x="598" d="M68 225v39.5t19 123t123.5 218t205.5 111.5q92 0 131 -44q32 -37 32 -75q0 -8 -1 -16q-6 -29 -21.5 -48.5t-46.5 -19.5q-43 0 -53.5 68.5t-50.5 68.5q-59 0 -121 -86t-78.5 -174t-18.5 -112.5t-2 -45.5q0 -186 152 -186q88 0 180 94l21 -41q-53 -61 -121.5 -98 t-134.5 -37q-102 0 -158.5 70.5t-56.5 189.5z" />
<glyph unicode="d" d="M70 248v57q6 25 21 108t126 193.5t240 110.5q70 0 133 -35l41 248q18 102 18 153t-21.5 68.5t-74.5 17.5l6 43l246 52l-199 -1133q-4 -29 -4 -41q0 -43 27 -43q16 0 39.5 14.5t42.5 30.5v-47q-72 -72 -136 -72q-90 0 -90 95q-39 -45 -92 -74t-102 -29q-106 0 -163.5 78 t-57.5 205zM199 231q0 -86 31.5 -135t97.5 -49q59 0 113.5 54.5t68.5 136.5l63 362q-18 18 -51 34.5t-76 16.5q-86 0 -149.5 -89t-80.5 -184t-17 -147z" />
<glyph unicode="e" horiz-adv-x="641" d="M70 252v36.5t19.5 114t124.5 206t216 108.5q70 0 112 -40t42 -106q0 -10 -10.5 -64t-108.5 -136t-277 -119q0 -98 39 -151.5t123 -53.5q37 0 91.5 27.5t95.5 66.5l18 -41q-53 -59 -123 -97t-135 -38q-106 0 -166.5 80t-60.5 207zM193 307q125 31 197.5 96.5t86.5 135.5 q2 8 2 24q0 72 -63 72q-72 0 -132.5 -80t-84.5 -215z" />
<glyph unicode="f" horiz-adv-x="458" d="M-238 -401q4 27 21.5 42t46.5 15q41 0 47 -71.5t66 -71.5q45 0 75.5 61t57.5 207l145 829h-133l14 72h134l34 203q31 174 127.5 276.5t200.5 102.5q88 0 135 -50q40 -42 40 -87q0 -7 -1 -15q-10 -51 -63 -51q-39 0 -53.5 71.5t-75.5 71.5q-55 0 -110.5 -80t-84.5 -239 l-35 -203h164l-14 -72h-164l-146 -829q-31 -172 -100.5 -250t-167.5 -78q-84 0 -127 47q-35 38 -35 80q0 9 2 19z" />
<glyph unicode="g" horiz-adv-x="641" d="M-141 -362q0 16 5 42.5t44 68.5t110 77l33 -23q-84 -74 -94 -133q-2 -10 -2 -20q0 -56 59 -88q70 -39 164 -39q92 0 173 44t89.5 83t8.5 55q0 61 -60.5 93t-175.5 44.5t-180.5 51t-65.5 110.5q0 16 6.5 49t59.5 78t127 66q-80 63 -80 184q0 27 13 99.5t95 154.5t177 82 q76 0 124 -55q70 55 136 55q47 0 71 -29q20 -23 20 -50q0 -6 -1 -13q-4 -25 -20.5 -43.5t-41.5 -18.5q-39 0 -47 41t-45 41q-20 0 -45 -16q35 -53 35 -131q0 -29 -13.5 -101.5t-92 -154.5t-177.5 -82q-55 0 -114.5 -30t-67.5 -69q-1 -4 -1 -8q0 -33 49 -52q54 -21 114 -21 q164 -14 237.5 -76t73.5 -150q0 -12 -12 -84.5t-123 -143.5t-258 -71q-143 0 -225 52.5t-82 130.5zM190 358q0 -63 21.5 -98t67.5 -35q57 0 98 58.5t51 115t12 80t2 41.5q0 61 -21.5 96t-66.5 35q-57 0 -98 -59.5t-53.5 -128t-12.5 -105.5z" />
<glyph unicode="h" horiz-adv-x="788" d="M70 0l163 930q18 102 19 153q0 51 -21.5 68.5t-74.5 17.5l6 43l244 52l-123 -715q45 76 107.5 122t127.5 46q80 0 118 -53.5t38 -147.5q0 -43 -10 -104l-48 -281q-4 -29 -4 -41q0 -43 27 -43q16 0 39.5 14.5t42.5 30.5v-47q-72 -72 -135 -72q-45 0 -67.5 29t-22.5 78 q0 25 2 37l51 284q10 57 10 72.5v26.5q0 59 -22.5 90t-75.5 31q-57 0 -127 -85t-94 -231l-56 -305h-114z" />
<glyph unicode="i" horiz-adv-x="421" d="M96 590v49q66 70 133 70q92 0 93 -105q0 -12 -5 -37l-75 -436q-6 -25 -6 -43q-1 -41 26 -41q18 0 42 14.5t40 30.5v-47q-72 -72 -133 -72q-92 0 -92 107q0 12 4 37l78 434q4 33 4 43q0 43 -27 43q-18 0 -41.5 -14.5t-40.5 -32.5zM264 1010q6 31 30.5 51t55.5 20 q32 -1 48 -21q13 -16 13 -39q0 -5 -1 -11q-4 -31 -28.5 -51.5t-57.5 -20.5q-28 0 -46 20q-14 17 -15 41q0 5 1 11z" />
<glyph unicode="j" horiz-adv-x="399" d="M-281 -395q10 51 64 51q39 0 53 -71.5t76 -71.5q53 0 90 61t66 225l133 752q4 33 4 43q0 43 -27 43q-18 0 -41.5 -14.5t-40.5 -32.5v49q66 70 133 70q92 0 93 -105q0 -12 -5 -37l-137 -768q-29 -174 -106.5 -260t-179.5 -86q-88 0 -136 49q-40 42 -40 88q0 7 1 15z M264 1010q6 31 30.5 51t55.5 20t48 -21q13 -16 13 -39q0 -5 -1 -11q-4 -31 -28.5 -51.5t-57.5 -20.5q-29 0 -46 20q-15 17 -15 41q0 5 1 11z" />
<glyph unicode="k" horiz-adv-x="720" d="M70 0l163 930q18 102 19 153q0 51 -21.5 68.5t-74.5 17.5l6 43l244 52l-144 -824q106 143 175 206t149 63q63 0 94 -39q24 -30 24 -65q0 -10 -2 -21q-10 -55 -61 -56q-37 0 -49 49.5t-53 49.5q-37 0 -88.5 -40t-137.5 -145l47 9q66 0 92.5 -25t36.5 -96l33 -199 q10 -84 47 -84q18 0 42 14.5t40 30.5v-47q-72 -72 -137 -72q-53 0 -84 39t-31 105l-8 196q0 47 -10 66.5t-43 19.5q-37 0 -90 -43l-64 -356h-114z" />
<glyph unicode="l" horiz-adv-x="413" d="M88 80q0 25 2 37l143 813q18 102 19 153q0 51 -21.5 68.5t-74.5 17.5l6 43l244 52l-197 -1133q-4 -29 -4 -41q0 -43 26 -43q16 0 40 14.5t42 30.5v-47q-72 -72 -135 -72q-45 0 -67.5 29t-22.5 78z" />
<glyph unicode="m" horiz-adv-x="1181" d="M96 590v49q66 70 133 70q92 0 93 -105q0 -12 -5 -37l-4 -18q41 76 102.5 122t129.5 46q76 0 108.5 -48t32.5 -141q41 86 107.5 137.5t134.5 51.5q76 0 108.5 -46t32.5 -132q0 -59 -12 -127l-47 -281q-6 -25 -6 -43q0 -41 26 -41q18 0 42 14.5t40 30.5v-47 q-72 -72 -133 -72q-92 0 -92 107q0 12 4 37l49 284q8 43 11 70t3 51q0 98 -84 99q-57 0 -123.5 -83t-91.5 -233l-55 -305h-113l70 401q8 43 11 70t3 51q0 98 -84 99q-59 0 -124.5 -82t-90.5 -234l-55 -305h-115l99 551q4 33 4 43q0 43 -27 43q-18 0 -41.5 -14.5t-40.5 -32.5 z" />
<glyph unicode="n" horiz-adv-x="821" d="M96 590v49q66 70 133 70q92 0 93 -105q0 -12 -5 -37l-4 -18q45 76 108.5 122t129.5 46q80 0 118 -53.5t38 -147.5q0 -43 -11 -104l-47 -281q-4 -29 -4 -41q0 -43 27 -43q16 0 39.5 14.5t42.5 30.5v-47q-72 -72 -136 -72q-45 0 -67.5 29t-22.5 78q0 25 2 37l50 284 q10 61 10 101q0 59 -22.5 89t-73.5 30q-57 0 -127 -85t-95 -231l-55 -305h-115l99 551q4 33 4 43q0 43 -27 43q-18 0 -41.5 -14.5t-40.5 -32.5z" />
<glyph unicode="o" horiz-adv-x="776" d="M72 266q0 35 17 132.5t128 208t240 110.5q109 0 178.5 -84t69.5 -213q0 -37 -17.5 -135.5t-126 -209t-237.5 -110.5q-113 0 -182.5 86t-69.5 215zM199 225q0 -92 32.5 -144t102.5 -52q88 0 148.5 87t79 187t18.5 154q0 92 -33 144t-101 52q-88 0 -149 -87t-79.5 -186 t-18.5 -155z" />
<glyph unicode="p" horiz-adv-x="788" d="M-150 -512l11 43q102 0 139 42t63 196l132 739q-66 -133 -154 -236l-35 25q74 86 148.5 253t111.5 365l17 95h112l-55 -328q39 18 69.5 26.5t71.5 8.5q113 0 182.5 -84t69.5 -213q0 -37 -16.5 -137.5t-111.5 -209t-222 -108.5q-45 0 -86 25.5t-68 68.5l-51 -290 q-16 -92 -16 -136q0 -63 28.5 -82.5t108.5 -19.5l-8 -43h-441zM258 193q0 -63 33 -104.5t84 -41.5q84 0 141 82t73.5 178t16.5 139q0 92 -34.5 148.5t-102.5 56.5q-45 0 -79 -13t-66 -38l-62 -362q-4 -33 -4 -45z" />
<glyph unicode="q" horiz-adv-x="753" d="M70 248v57q6 25 21 108t126 193.5t240 110.5q70 0 133 -35h112l-161 -913q-14 -80 -15 -134q0 -61 30 -82.5t106 -21.5l-9 -43h-438l8 43q104 0 140 42t63 196l51 290q-41 -43 -89 -68.5t-97 -25.5q-106 0 -163.5 78t-57.5 205zM199 231q0 -86 31.5 -135t97.5 -49 q59 0 113.5 54.5t68.5 136.5l63 362q-18 18 -51 34.5t-76 16.5q-86 0 -149.5 -89t-80.5 -184t-17 -147z" />
<glyph unicode="r" horiz-adv-x="583" d="M96 590v49q66 70 133 70q84 0 84 -99q0 -14 -4 -43l-10 -51q39 96 94.5 148.5t114.5 52.5q55 0 79.5 -30t24.5 -75q0 -16 -4 -36.5t-26.5 -39t-53.5 -18.5q-27 0 -43 19.5t-12 46.5q2 8 2 20q0 23 -20 23q-49 0 -110.5 -113t-98.5 -315l-35 -199h-109l99 551q4 33 4 43 q0 43 -27 43q-18 0 -41.5 -14.5t-40.5 -32.5z" />
<glyph unicode="s" horiz-adv-x="495" d="M8 104q10 47 58 48q29 0 47 -60.5t96 -60.5q43 0 73.5 29.5t36.5 68.5q1 9 1 19q0 30 -14 60q-19 40 -46 64l-74 72q-69 65 -69 157q0 21 7 63t64.5 97.5t153.5 55.5q74 0 110 -39q30 -33 30 -70q0 -6 -1 -12q-6 -41 -45 -41q-31 0 -45 53.5t-72 53.5q-35 0 -64.5 -26 t-34.5 -49.5t-5 -39.5q0 -47 64 -111l73 -69q70 -66 70 -160q0 -20 -9.5 -74.5t-79 -111t-149.5 -56.5q-88 0 -136 46q-41 39 -41 80q0 6 1 13z" />
<glyph unicode="t" horiz-adv-x="466" d="M57 610l15 72h133l57 328h113l-56 -328h164l-14 -72h-164l-74 -413q-6 -43 -6 -74q0 -76 51 -76q25 0 57 20.5t73 71.5l2 -55q-39 -53 -93.5 -86t-89.5 -33q-114 0 -114 143v34q0 14 8 55l71 413h-133z" />
<glyph unicode="u" horiz-adv-x="821" d="M96 590v49q66 70 133 70q92 0 93 -105q0 -12 -5 -37l-51 -284q-10 -57 -10 -72.5v-26.5q0 -59 22.5 -90t75.5 -31q59 0 128 84t96 230l53 305h114l-96 -551q-4 -29 -4 -41q0 -43 27 -43q16 0 39.5 14.5t42.5 30.5v-47q-73 -72 -136 -72q-45 0 -67.5 29t-22.5 78 q0 25 2 37l5 16q-45 -76 -110 -122t-130 -46q-80 0 -118 53.5t-38 149.5q0 43 11 104l51 279q4 33 4 43q0 43 -27 43q-18 0 -41.5 -14.5t-40.5 -32.5z" />
<glyph unicode="v" horiz-adv-x="700" d="M61 590v49q27 29 67 49.5t67 20.5q29 0 59.5 -5.5t34.5 -5.5q23 0 49 19h35q-4 -27 -57.5 -200t-65.5 -244.5t-12 -98.5q0 -66 26.5 -99.5t69.5 -33.5q74 0 142.5 84t87 186.5t18.5 149.5q0 78 -33 138t-31 79q8 39 51 39q33 0 57 -47t25 -148q0 -72 -22.5 -204 t-114.5 -242.5t-201 -110.5q-102 0 -147 50.5t-45 134.5q0 35 8 87t75.5 201.5t69.5 157.5q-31 14 -61.5 27.5t-69.5 13.5q-16 0 -40.5 -15.5t-41.5 -31.5z" />
<glyph unicode="w" horiz-adv-x="1040" d="M61 590v49q27 29 67 49.5t67 20.5q29 0 56.5 -5.5t33.5 -5.5q23 0 51 19h37q-6 -29 -59.5 -210t-64.5 -242.5t-11 -88.5q0 -66 27.5 -100.5t68.5 -34.5q76 0 145 84q-26 73 -26 169v7q0 76 18 174t66.5 170t93.5 72q31 0 50 -39t19 -105v-57q-6 -27 -14 -72t-41 -125.5 t-76 -146.5q44 -131 140 -131q61 0 119.5 79t77 179t18.5 156q0 84 -34 141q-30 51 -30 78v6q8 39 51 39q31 0 55.5 -51.5t24.5 -155.5q0 -59 -3 -86t-22.5 -140.5t-102.5 -217t-173 -103.5q-59 0 -107 27.5t-83 87.5q-51 -55 -100.5 -85t-102.5 -30q-176 0 -176 189 q0 31 9 84t73.5 188t70.5 170q-61 29 -81.5 35t-49.5 6q-16 0 -40.5 -15.5t-41.5 -31.5zM551 328q0 -45 6 -86q60 114 80 235q4 27 7 48.5t3 47.5q0 59 -20 60q-35 0 -55.5 -120t-20.5 -185z" />
<glyph unicode="x" horiz-adv-x="612" d="M-27 47q0 12 5.5 41t33.5 29q33 0 33 -27q-4 -23 -4 -35q0 -29 35 -28q27 0 68.5 60t76.5 132l41 84l-51 256q-20 86 -57 86q-18 0 -42 -14.5t-40 -30.5v47q27 29 66.5 49.5t66.5 20.5q53 0 78.5 -32t42.5 -110l24 -104q55 111 108.5 178.5t116.5 67.5q41 0 60.5 -22.5 t19.5 -55.5q0 -16 -2 -30.5t-13 -28t-19 -13.5q-33 0 -33 27q2 23 2 33q0 31 -33 30q-29 0 -68.5 -58t-78.5 -134l-43 -84l55 -258q18 -86 55 -86q18 0 42 14.5t40 32.5v-47q-68 -72 -133 -72q-53 0 -78.5 32t-44.5 112l-20 102q-59 -115 -111.5 -180.5t-116.5 -65.5 q-41 0 -61.5 24.5t-20.5 57.5z" />
<glyph unicode="y" horiz-adv-x="632" d="M-541 -436q4 20 24.5 43.5t39.5 23.5q12 0 46 -44t101 -44q111 0 247 86t263 230q16 113 25.5 213t9.5 186q0 188 -37 284.5t-90 96.5q-18 0 -51 -18.5t-43 -30.5v49q29 31 69.5 50.5t79.5 19.5q88 0 136.5 -112t48.5 -314q0 -119 -19 -265q72 109 118 206.5t60 191.5 q8 47 9 90q0 84 -37 127t-35 59q0 16 15.5 27.5t35.5 11.5q39 0 68.5 -43t29.5 -131q0 -47 -37.5 -260t-348 -527.5t-572.5 -314.5q-84 0 -123 33q-34 29 -34 65q0 5 1 11z" />
<glyph unicode="z" horiz-adv-x="577" d="M-18 6v17q10 57 192 253.5t283 286.5q-35 -8 -43 -9t-29 -1q-37 0 -92 24.5t-96 24.5q-51 0 -95 -45l-22 14q29 61 68.5 103.5t82.5 42.5t119 -53.5t96 -53.5q41 0 76 53.5t49 53.5q29 0 23 -35q-6 -27 -28.5 -61.5t-102.5 -115.5t-178.5 -191.5t-137.5 -176.5l52 4 q96 0 173 -109.5t142 -109.5q86 0 148 55l22 -22q-51 -78 -102.5 -123t-114.5 -45q-76 0 -156 148.5t-131 148.5q-66 0 -108.5 -58.5t-51.5 -60.5q-5 -1 -10 -1q-29 0 -28 42z" />
<glyph unicode="{" horiz-adv-x="733" d="M139 590l4 33q121 39 173 96t87 260q33 188 129.5 267t315.5 194l26 -43q-158 -96 -227 -174t-101 -262.5t-91.5 -255t-184.5 -99.5q88 -23 126 -62.5t38 -140.5q0 -66 -14 -153.5t-14 -130.5q0 -100 45 -162.5t145 -140.5l-41 -43q-166 106 -228.5 166.5t-62.5 197.5v38 t13.5 88t13.5 132q0 96 -35 131t-117 64z" />
<glyph unicode="|" horiz-adv-x="552" d="M184 0l256 1450h90l-256 -1450h-90z" />
<glyph unicode="}" horiz-adv-x="733" d="M-29 -184q154 94 225.5 173t104.5 264t91.5 255t185.5 98q-88 23 -127 63t-39 140q0 66 11 134.5t14 92t3 56.5q0 102 -45 164.5t-145 140.5l43 43q164 -104 226.5 -167t62.5 -200v-53q-6 -29 -15.5 -79t-9.5 -120q0 -76 25.5 -119t124.5 -79l-5 -33q-119 -39 -172 -97.5 t-88 -259.5q-27 -150 -101.5 -235.5t-342.5 -224.5z" />
<glyph unicode="~" horiz-adv-x="866" d="M150 424q16 102 74.5 170t123.5 68q51 0 148.5 -67t138.5 -67t71.5 29t55.5 88h39q-20 -113 -77.5 -177.5t-133.5 -64.5q-47 0 -145.5 68t-133.5 68q-33 0 -69.5 -35t-55.5 -80h-36z" />
<glyph unicode="&#xa1;" horiz-adv-x="614" d="M76 -301q0 12 23.5 94t77.5 289t108 471h69q-41 -274 -55 -466.5t-27 -369.5q-8 -41 -41.5 -70.5t-74.5 -29.5q-35 0 -57.5 22.5t-22.5 59.5zM268 799q6 41 39 69.5t74 28.5q39 0 63.5 -28.5t18.5 -69.5q-8 -41 -43 -70t-76 -29q-39 0 -61.5 29t-14.5 70z" />
<glyph unicode="&#xa2;" horiz-adv-x="915" d="M190 453q0 35 15.5 127t117 195.5t220.5 133.5l61 355h74l-60 -342h9q121 0 175 -42t44 -106q-8 -43 -40 -65.5t-67 -22.5t-53 22.5t-14 59.5q2 8 2 16.5v12.5q0 33 -15.5 46t-42.5 13h-8l-106 -598l57 -6q53 0 115.5 23.5t120.5 70.5l30 -41q-70 -63 -156.5 -99 t-172.5 -36h-9l-61 -340h-74l62 348q-109 20 -166.5 93t-57.5 182zM322 465q0 -135 110 -186l96 555q-72 -41 -127 -121t-67 -149.5t-12 -98.5z" />
<glyph unicode="&#xa3;" horiz-adv-x="935" d="M16 0l9 43q94 0 129.5 44t62.5 196l57 327h-135l15 72h135l35 197q35 197 140 291t245 94q86 0 132 -42t46 -96q0 -37 -21.5 -62.5t-60.5 -25.5q-45 0 -59.5 79t-83.5 79q-80 0 -134.5 -73.5t-83.5 -243.5l-34 -197h155l-14 -72h-156l-51 -297q-8 -45 -12 -79.5t-4 -63.5 q0 -55 25.5 -74.5t95.5 -19.5h192q100 0 136 31.5t69 123.5l14 41h33l-62 -272h-815z" />
<glyph unicode="&#xa4;" horiz-adv-x="1024" d="M174 258l109 94q-25 47 -25 115v25q4 16 11 63t73 125l-78 92l82 70l76 -94q84 53 176 53t154 -51l110 94l58 -70l-111 -94q27 -53 27 -117l-5 -47q-16 -92 -79 -164l75 -96l-82 -70l-75 97q-80 -51 -172 -52q-92 0 -156 52l-111 -97zM369 485q0 -63 41 -104t106 -41 q72 0 132.5 51t68.5 93t8 63q0 59 -41 102t-106 43q-74 0 -134.5 -51t-72.5 -125q-2 -10 -2 -31z" />
<glyph unicode="&#xa5;" horiz-adv-x="956" d="M156 295l14 90h240l16 94h-238l15 90h233q14 115 15 217q0 197 -50.5 294.5t-119.5 97.5q-23 0 -53.5 -16.5t-47.5 -31.5v48q35 37 77 54t81 17q117 0 167 -135t50 -469q104 289 207.5 445.5t222.5 156.5q61 0 93 -40t24 -83q-6 -27 -20.5 -42t-41.5 -15q-37 0 -51 49 t-51 49q-72 0 -176.5 -187t-171.5 -409h211l-17 -90h-219q-6 -23 -12 -46.5t-6 -39.5l-2 -8h223l-14 -90h-226l-2 -12q-8 -45 -12 -80t-4 -64q0 -57 25.5 -76.5t95.5 -19.5l-6 -43h-435l9 43q94 0 130 44t62 196l4 12h-239z" />
<glyph unicode="&#xa6;" horiz-adv-x="432" d="M119 0l108 614h90l-106 -614h-92zM266 836l109 614h92l-111 -614h-90z" />
<glyph unicode="&#xa7;" horiz-adv-x="598" d="M14 111q0 55 56 61q41 6 62.5 -73t115.5 -79q63 0 99 40t42 70t6 46q0 47 -21.5 94t-49.5 72l-86 84q-39 35 -65 82t-26 96q0 20 7.5 58t49.5 93.5t109 80.5q-43 43 -67.5 90t-24.5 98q0 16 8.5 64.5t76 112t177.5 63.5q80 0 122 -38t42 -85q0 -55 -47 -56q-39 0 -53 67 t-80 67q-55 0 -92 -33t-45 -73t-8 -52q0 -68 73 -141l88 -84q88 -82 88 -183q0 -20 -7 -62t-46 -96.5t-96 -84.5q78 -82 78 -174q0 -16 -12.5 -79t-91.5 -127.5t-173 -64.5q-96 0 -152.5 46t-56.5 100zM250 651q0 -74 72 -143l63 -62q37 18 55.5 49t23.5 54.5t5 42.5 q0 45 -21.5 92t-48.5 70l-47 47q-84 -27 -93 -78t-9 -72z" />
<glyph unicode="&#xa8;" horiz-adv-x="634" d="M272 1276q6 33 34 56.5t61 23.5q35 0 53 -22.5t14 -57.5q-6 -35 -33.5 -58.5t-62.5 -23.5t-53.5 22.5t-12.5 59.5zM545 1276q4 31 32.5 55.5t61.5 24.5t52.5 -23.5t13.5 -56.5q-6 -35 -34 -58.5t-61 -23.5q-35 0 -53 22.5t-12 59.5z" />
<glyph unicode="&#xa9;" horiz-adv-x="1398" d="M98 500q0 33 2 52t29 175t249 346.5t492 190.5q236 0 390.5 -153t154.5 -382q0 -33 -2 -52.5t-8 -62.5q-47 -268 -270.5 -458.5t-493.5 -190.5q-238 0 -390.5 152.5t-152.5 382.5zM164 514q0 -207 138 -345t351 -138q246 0 445.5 170t225.5 322.5t26 197.5 q0 205 -138.5 341t-351.5 136q-242 0 -442.5 -170t-245.5 -414q-8 -47 -8 -100zM358 539q0 35 19.5 144.5t164 235t316.5 125.5q68 0 128.5 -33.5t94.5 -86.5q10 10 21.5 29.5t27.5 60.5h33l-55 -320h-37q0 131 -58.5 206t-166.5 75q-141 0 -232.5 -110.5t-108 -201 t-16.5 -133.5q0 -119 54.5 -197.5t175.5 -78.5q104 0 189 76t134 207h37l-57 -322h-33q0 66 -16 90q-53 -53 -127 -87t-139 -34q-154 0 -251.5 101.5t-97.5 253.5z" />
<glyph unicode="&#xaa;" d="M168 788v39.5t17.5 114.5t128 210t239.5 112q39 0 68.5 -8.5t62.5 -26.5h115l-97 -551q-6 -25 -6 -43q0 -43 27 -43q18 0 41.5 14.5t40.5 32.5v-49q-66 -70 -133 -70q-82 0 -92 92q-41 -45 -92.5 -72.5t-100.5 -27.5q-106 0 -162.5 76t-56.5 200zM297 778 q0 -88 30.5 -136t96.5 -48q59 0 113.5 53t68.5 137l64 361q-25 31 -57.5 42t-69.5 11q-84 0 -148.5 -90t-81 -188.5t-16.5 -141.5z" />
<glyph unicode="&#xab;" horiz-adv-x="1366" d="M217 549l752 444l24 -35l-547 -409l402 -410l-35 -37zM647 549l621 338l18 -39l-409 -299l303 -299l-31 -41z" />
<glyph unicode="&#xac;" horiz-adv-x="1167" d="M211 514l14 90h770l-61 -352h-90l45 262h-678z" />
<glyph unicode="&#xad;" horiz-adv-x="937" d="M188 391l15 90h598l-17 -90h-596z" />
<glyph unicode="&#xae;" horiz-adv-x="1398" d="M98 500q0 33 2 52t29 175t249 346.5t492 190.5q236 0 390.5 -153t154.5 -382q0 -33 -2 -52.5t-8 -62.5q-47 -268 -270.5 -458.5t-493.5 -190.5q-238 0 -390.5 152.5t-152.5 382.5zM164 514q0 -207 138 -345t351 -138q127 0 245 48t214 136h-197l-202 344h-70l-16 -92 q-14 -72 -15 -121q0 -57 27 -75.5t94 -18.5l-6 -37h-405l6 37q92 0 125.5 39t58.5 176l53 295q6 45 10.5 71.5t4.5 49.5q0 57 -27 75.5t-96 18.5l6 37h397q113 0 177.5 -52.5t64.5 -138.5q0 -10 -10.5 -67.5t-81 -119t-174.5 -75.5l92 -135q47 -74 106.5 -124t116.5 -50 q74 76 123 169t62.5 174t13.5 126q0 205 -138.5 341t-351.5 136q-242 0 -442.5 -170t-227 -315.5t-26.5 -198.5zM655 625h136q74 0 119.5 45t54 94t8.5 61q0 55 -30.5 88t-96.5 33h-133z" />
<glyph unicode="&#xb0;" horiz-adv-x="819" d="M207 874v25q4 16 15 84t117.5 158t233.5 90q113 0 185.5 -70.5t72.5 -181.5q0 -26 -6 -55q-20 -127 -125.5 -217.5t-232.5 -90.5q-115 0 -187.5 73t-72.5 185zM309 887q0 -74 49.5 -123t126.5 -49q86 0 158 61.5t81 116.5t9 68q0 74 -49 123t-125 49q-86 0 -159 -61.5 t-87 -147.5q-4 -25 -4 -37z" />
<glyph unicode="&#xb1;" horiz-adv-x="937" d="M51 -2l17 90h733l-17 -90h-733zM131 459l19 90h319l49 287h92l-51 -287h324l-17 -90h-323l-49 -289h-91l50 289h-322z" />
<glyph unicode="&#xb2;" horiz-adv-x="688" d="M150 588l6 45l313 244q45 31 78 72.5t40 79.5t7 48q0 55 -33 82t-94 27q-51 0 -97 -41t-46 -101q0 -33 18 -73l-63 -51q-61 47 -62 122q0 86 76 154t196 68q92 0 157 -46.5t65 -121.5l-4 -35q-10 -63 -52.5 -113.5t-105.5 -99.5l-213 -162h326l-35 -98h-477z" />
<glyph unicode="&#xb3;" horiz-adv-x="688" d="M176 684q0 47 49 47q14 0 48 -58.5t114 -58.5q72 0 117 47.5t51 85t6 58.5q0 45 -23.5 76.5t-70.5 42.5q-20 -20 -37.5 -44t-32 -30t-24.5 -6q-31 0 -31 30q0 20 25 44l241 212h-178q-53 0 -88 -16t-53 -61l-17 -35h-47l76 211h442l-10 -47l-194 -193q66 -23 103.5 -73 t37.5 -111q0 -20 -9 -71.5t-94 -116t-200 -64.5q-94 0 -147.5 42t-53.5 89z" />
<glyph unicode="&#xb4;" horiz-adv-x="464" d="M168 1149l221 178q25 20 48.5 34.5t49.5 14.5q27 0 40.5 -18.5t9.5 -40.5q-4 -20 -22 -37t-38 -25l-303 -120z" />
<glyph unicode="&#xb5;" horiz-adv-x="821" d="M-150 -512l9 43q104 0 140 42t62 196l140 782q4 33 4 43q0 43 -27 43q-18 0 -41.5 -14.5t-40.5 -32.5v49q66 70 133 70q92 0 93 -105q0 -12 -5 -37l-51 -284q-10 -57 -10 -72.5v-26.5q0 -59 22.5 -90t75.5 -31q59 0 128 84t96 230l53 305h114l-96 -551q-4 -29 -4 -41 q0 -43 27 -43q16 0 39.5 14.5t42.5 30.5v-47q-72 -72 -136 -72q-45 0 -67.5 29t-22.5 78q0 25 2 37l5 16q-45 -76 -110 -122t-130 -46q-45 0 -80 21l-39 -217q-16 -92 -16 -136q0 -63 28.5 -82.5t108.5 -19.5l-8 -43h-439z" />
<glyph unicode="&#xb6;" horiz-adv-x="1050" d="M104 -348l7 43q129 0 170 41t69 196l107 605q-115 12 -185.5 91t-70.5 191q0 31 16 118t135 189.5t264 102.5h480l-6 -43q-129 0 -170 -41t-70 -197l-178 -1016q-8 -43 -12.5 -72.5t-4.5 -58.5q0 -63 36 -84.5t134 -21.5l-8 -43h-270l262 1487h-170l-264 -1487h-271z" />
<glyph unicode="&#xb8;" horiz-adv-x="446" d="M27 -502l10 56q63 25 111.5 57.5t58.5 95.5q12 80 -90 80q-33 0 -70 -12l6 28l209 209q12 6 25 6q14 0 24.5 -4t18.5 -8l-135 -137q45 0 80.5 -34t35.5 -95q0 -20 -9 -74.5t-103.5 -104.5t-171.5 -63z" />
<glyph unicode="&#xb9;" horiz-adv-x="688" d="M221 588l6 43q76 0 102.5 28.5t45.5 137.5l41 225q6 43 6 70q0 53 -26.5 68.5t-96.5 15.5l8 43l268 53l-83 -475q-4 -27 -7.5 -47.5t-3.5 -47.5q0 -43 20.5 -57t78.5 -14l-9 -43h-350z" />
<glyph unicode="&#xba;" horiz-adv-x="776" d="M170 809q0 37 16.5 135t125 209t239.5 111q109 0 179.5 -85t70.5 -214q0 -37 -17.5 -134.5t-127 -208t-236.5 -110.5q-111 0 -180.5 84t-69.5 213zM297 766q0 -88 32.5 -139.5t100.5 -51.5q86 0 147.5 87.5t79 188.5t17.5 148q0 94 -31.5 147.5t-101.5 53.5 q-90 0 -149.5 -86t-77 -189.5t-17.5 -158.5z" />
<glyph unicode="&#xbb;" horiz-adv-x="1366" d="M172 250l410 299l-303 299l30 39l502 -338l-621 -340zM463 139l549 410l-404 409l37 35l596 -444l-754 -447z" />
<glyph unicode="&#xbc;" horiz-adv-x="1546" d="M190 596l7 37q70 0 96 30.5t45 135.5l39 223q8 41 8 74q0 49 -26.5 64.5t-92.5 15.5l6 38l256 48l-79 -463q-4 -27 -7.5 -47.5t-3.5 -44.5q0 -43 19.5 -58.5t72.5 -15.5l-4 -37h-336zM272 0l1010 1270l70 -39l-1010 -1268zM887 190l4 35l436 469h51l-78 -436 q43 0 71 21.5t56 85.5l13 32h43l-47 -207h-148q-10 -51 -10 -75q0 -41 22.5 -55.5t77.5 -14.5l-8 -45h-350l8 45q74 0 100.5 26.5t42.5 118.5h-284zM999 258h185l41 242z" />
<glyph unicode="&#xbd;" horiz-adv-x="1546" d="M190 596l7 37q70 0 96 30.5t45 135.5l39 223q8 41 8 74q0 49 -26.5 64.5t-92.5 15.5l6 38l256 48l-79 -463q-4 -27 -7.5 -47.5t-3.5 -44.5q0 -43 19.5 -58.5t72.5 -15.5l-4 -37h-336zM272 0l1010 1270l70 -39l-1010 -1268zM903 0l8 47l314 242q45 31 76.5 72.5t39 80.5 t7.5 50q0 55 -33 81.5t-92 26.5q-51 0 -98.5 -41t-47.5 -100q0 -35 21 -74l-66 -51q-61 47 -61 121q0 84 78.5 152.5t195.5 68.5q94 0 156.5 -46t62.5 -124q0 -20 -6 -58t-49 -88.5t-106 -97.5l-211 -164h325l-37 -98h-477z" />
<glyph unicode="&#xbe;" horiz-adv-x="1546" d="M176 684q0 47 49 47q14 0 48 -58.5t114 -58.5q72 0 117 47.5t51 85t6 58.5q0 45 -23.5 76.5t-70.5 42.5q-20 -20 -37.5 -44t-32 -30t-24.5 -6q-31 0 -31 30q0 20 25 44l241 212h-178q-53 0 -88 -16t-53 -61l-17 -35h-47l76 211h442l-10 -47l-194 -193q66 -23 103.5 -73 t37.5 -111q0 -20 -9 -71.5t-94 -116t-200 -64.5q-94 0 -147.5 42t-53.5 89zM272 0l1010 1270l70 -39l-1010 -1268zM887 190l4 35l436 469h51l-78 -436q43 0 71 21.5t56 85.5l13 32h43l-47 -207h-148q-10 -51 -10 -75q0 -41 22.5 -55.5t77.5 -14.5l-8 -45h-350l8 45 q74 0 100.5 26.5t42.5 118.5h-284zM999 258h185l41 242z" />
<glyph unicode="&#xbf;" horiz-adv-x="1007" d="M117 -152q0 14 13 93t136 165q111 59 226.5 121t128.5 135q8 47 -20 75t-83 28q-61 0 -135 -45v53q29 20 76 37.5t90 17.5q59 0 106 -35.5t47 -107.5q0 -12 -12 -83t-220 -188.5t-218 -177t-10 -75.5q0 -66 49 -111t139 -45q76 0 142.5 48t73.5 85t7 53q0 35 -18 76 l90 41q43 -49 43 -114q0 -12 -10 -73t-109.5 -132.5t-242.5 -71.5q-115 0 -202 64.5t-87 166.5zM535 799q6 41 40.5 69.5t75.5 28.5q39 0 61.5 -28.5t16.5 -69.5q-8 -41 -41 -70t-74 -29q-39 0 -63.5 29t-15.5 70z" />
<glyph unicode="&#xc0;" horiz-adv-x="989" d="M-96 0l8 43q82 0 119 31.5t96 146.5l520 1043h39l156 -1043q18 -117 41.5 -147.5t107.5 -30.5l-6 -43h-436l8 43q84 0 118 24.5t34 86.5q0 12 -4 45l-33 227h-363l-114 -227q-29 -61 -29 -93q0 -63 123 -63l-6 -43h-379zM348 502h314l-72 483zM392 1562q4 23 22.5 41.5 t44.5 18.5q29 0 48.5 -15.5t33.5 -31.5l160 -181l-12 -12l-263 119q-20 12 -29 28.5t-5 32.5z" />
<glyph unicode="&#xc1;" horiz-adv-x="989" d="M-96 0l8 43q82 0 119 31.5t96 146.5l520 1043h39l156 -1043q18 -117 41.5 -147.5t107.5 -30.5l-6 -43h-436l8 43q84 0 118 24.5t34 86.5q0 12 -4 45l-33 227h-363l-114 -227q-29 -61 -29 -93q0 -63 123 -63l-6 -43h-379zM348 502h314l-72 483zM563 1395l221 178 q25 20 48.5 34.5t49.5 14.5q27 0 40.5 -18.5t9.5 -40.5q-4 -20 -22 -37t-38 -25l-303 -120z" />
<glyph unicode="&#xc2;" horiz-adv-x="989" d="M-96 0l8 43q82 0 119 31.5t96 146.5l520 1043h39l156 -1043q18 -117 41.5 -147.5t107.5 -30.5l-6 -43h-436l8 43q84 0 118 24.5t34 86.5q0 12 -4 45l-33 227h-363l-114 -227q-29 -61 -29 -93q0 -63 123 -63l-6 -43h-379zM348 502h314l-72 483zM387 1405l291 266l198 -266 l-30 -23l-193 156l-246 -156z" />
<glyph unicode="&#xc3;" horiz-adv-x="989" d="M-96 0l8 43q82 0 119 31.5t96 146.5l520 1043h39l156 -1043q18 -117 41.5 -147.5t107.5 -30.5l-6 -43h-436l8 43q84 0 118 24.5t34 86.5q0 12 -4 45l-33 227h-363l-114 -227q-29 -61 -29 -93q0 -63 123 -63l-6 -43h-379zM348 502h314l-72 483zM398 1401q14 86 62 142.5 t103 56.5q43 0 124 -56.5t114 -56.5q64 0 107 98h32q-39 -203 -178 -203q-37 0 -120 56.5t-111 56.5q-27 0 -55.5 -26.5t-47.5 -67.5h-30z" />
<glyph unicode="&#xc4;" horiz-adv-x="989" d="M-96 0l8 43q82 0 119 31.5t96 146.5l520 1043h39l156 -1043q18 -117 41.5 -147.5t107.5 -30.5l-6 -43h-436l8 43q84 0 118 24.5t34 86.5q0 12 -4 45l-33 227h-363l-114 -227q-29 -61 -29 -93q0 -63 123 -63l-6 -43h-379zM348 502h314l-72 483zM454 1464q6 33 34 56.5 t61 23.5q35 0 53 -22.5t14 -57.5q-6 -35 -33.5 -58.5t-62.5 -23.5t-53.5 22.5t-12.5 59.5zM727 1464q4 31 32.5 55.5t61.5 24.5t52.5 -23.5t13.5 -56.5q-6 -35 -34 -58.5t-61 -23.5q-35 0 -53 22.5t-12 59.5z" />
<glyph unicode="&#xc5;" horiz-adv-x="989" d="M-96 0l8 43q82 0 119 31.5t96 146.5l520 1043h39l156 -1043q18 -117 41.5 -147.5t107.5 -30.5l-6 -43h-436l8 43q84 0 118 24.5t34 86.5q0 12 -4 45l-33 227h-363l-114 -227q-29 -61 -29 -93q0 -63 123 -63l-6 -43h-379zM348 502h314l-72 483zM547 1522q0 18 8 58 t66.5 89t128.5 49q61 0 101 -38t40 -99q0 -11 -4 -31q-12 -74 -67.5 -122t-129.5 -48q-61 0 -102 41t-41 101zM625 1550q-6 -37 16.5 -65.5t60.5 -28.5q39 0 72 26.5t39 67.5q6 37 -16.5 66t-61.5 29t-71.5 -27t-38.5 -68z" />
<glyph unicode="&#xc6;" horiz-adv-x="1314" d="M-96 0l8 43q82 0 131 37t111 141l598 1008h585l-32 -271h-33v41q0 88 -25.5 121t-126.5 33h-225l-100 -567h73q117 0 155 33.5t60 162.5h33l-84 -469h-33q12 66 13 105q0 57 -33 74.5t-123 17.5h-74l-37 -197q-8 -45 -12 -79.5t-4 -63.5q0 -57 26.5 -75.5t96.5 -18.5h129 q98 0 136 32.5t71 122.5l14 41h33l-61 -272h-764l6 43q96 0 132 43t62 197l41 227h-243l-187 -311q-41 -70 -41 -105q0 -51 109 -51l-6 -43h-379zM451 586h211l92 512z" />
<glyph unicode="&#xc7;" horiz-adv-x="1105" d="M174 463q0 74 29.5 247t202 363.5t366.5 190.5q162 0 256 -174q14 12 30.5 42.5t33.5 73.5h41l-80 -450h-43q0 203 -62.5 315.5t-185.5 112.5q-154 0 -268.5 -176.5t-142 -331t-27.5 -238.5q0 -170 57 -280.5t180 -110.5q125 0 230.5 113.5t169.5 312.5h43l-80 -450h-43 q0 27 -1 62.5t-20 53.5q-72 -82 -154.5 -128t-162.5 -46l-25 2l-98 -98q45 0 81 -34t36 -95q0 -20 -9.5 -74.5t-103.5 -104.5t-172 -63l10 56q63 25 111.5 57.5t58.5 95.5q12 80 -90 80q-33 0 -70 -12l7 28l174 177q-127 35 -203 167t-76 316z" />
<glyph unicode="&#xc8;" horiz-adv-x="917" d="M16 0l9 43q94 0 129.5 44t62.5 196l117 665q8 49 12 80t4 62q0 59 -26.5 77.5t-96.5 18.5l6 43h713l-35 -271h-32v41q0 88 -26 121t-126 33h-225l-82 -465h76q117 0 153.5 34t59.5 163h32l-82 -469h-32q12 66 12 102q0 57 -34 75.5t-124 18.5h-75l-52 -299 q-8 -45 -12 -79.5t-4 -63.5q0 -55 25.5 -74.5t95.5 -19.5h131q100 0 136 31.5t69 123.5l14 41h33l-62 -272h-764zM398 1562q4 23 22.5 41.5t44.5 18.5q29 0 48.5 -15.5t33.5 -31.5l160 -181l-12 -12l-263 119q-20 12 -29 28.5t-5 32.5z" />
<glyph unicode="&#xc9;" horiz-adv-x="917" d="M16 0l9 43q94 0 129.5 44t62.5 196l117 665q8 49 12 80t4 62q0 59 -26.5 77.5t-96.5 18.5l6 43h713l-35 -271h-32v41q0 88 -26 121t-126 33h-225l-82 -465h76q117 0 153.5 34t59.5 163h32l-82 -469h-32q12 66 12 102q0 57 -34 75.5t-124 18.5h-75l-52 -299 q-8 -45 -12 -79.5t-4 -63.5q0 -55 25.5 -74.5t95.5 -19.5h131q100 0 136 31.5t69 123.5l14 41h33l-62 -272h-764zM551 1397l221 178q25 20 48.5 34.5t49.5 14.5q27 0 40.5 -18.5t9.5 -40.5q-4 -20 -22 -37t-38 -25l-303 -120z" />
<glyph unicode="&#xca;" horiz-adv-x="917" d="M16 0l9 43q94 0 129.5 44t62.5 196l117 665q8 49 12 80t4 62q0 59 -26.5 77.5t-96.5 18.5l6 43h713l-35 -271h-32v41q0 88 -26 121t-126 33h-225l-82 -465h76q117 0 153.5 34t59.5 163h32l-82 -469h-32q12 66 12 102q0 57 -34 75.5t-124 18.5h-75l-52 -299 q-8 -45 -12 -79.5t-4 -63.5q0 -55 25.5 -74.5t95.5 -19.5h131q100 0 136 31.5t69 123.5l14 41h33l-62 -272h-764zM377 1405l291 266l198 -266l-30 -23l-193 156l-246 -156z" />
<glyph unicode="&#xcb;" horiz-adv-x="917" d="M16 0l9 43q94 0 129.5 44t62.5 196l117 665q8 49 12 80t4 62q0 59 -26.5 77.5t-96.5 18.5l6 43h713l-35 -271h-32v41q0 88 -26 121t-126 33h-225l-82 -465h76q117 0 153.5 34t59.5 163h32l-82 -469h-32q12 66 12 102q0 57 -34 75.5t-124 18.5h-75l-52 -299 q-8 -45 -12 -79.5t-4 -63.5q0 -55 25.5 -74.5t95.5 -19.5h131q100 0 136 31.5t69 123.5l14 41h33l-62 -272h-764zM442 1462q6 33 34 56.5t61 23.5q35 0 53 -22.5t14 -57.5q-6 -35 -33.5 -58.5t-62.5 -23.5t-53.5 22.5t-12.5 59.5zM715 1462q4 31 32.5 55.5t61.5 24.5 t52.5 -23.5t13.5 -56.5q-6 -35 -34 -58.5t-61 -23.5q-35 0 -53 22.5t-12 59.5z" />
<glyph unicode="&#xcc;" horiz-adv-x="567" d="M16 0l9 43q94 0 129.5 44t62.5 196l117 665q8 49 12 80t4 62q0 59 -26.5 77.5t-96.5 18.5l6 43h431l-7 -43q-98 0 -130.5 -41t-59.5 -197l-119 -665q-8 -45 -12 -80t-4 -64q0 -59 26.5 -77.5t96.5 -18.5l-9 -43h-430zM197 1562q4 23 22.5 41.5t44.5 18.5q29 0 48.5 -15.5 t33.5 -31.5l160 -181l-12 -12l-263 119q-20 12 -29 28.5t-5 32.5z" />
<glyph unicode="&#xcd;" horiz-adv-x="567" d="M16 0l9 43q94 0 129.5 44t62.5 196l117 665q8 49 12 80t4 62q0 59 -26.5 77.5t-96.5 18.5l6 43h431l-7 -43q-98 0 -130.5 -41t-59.5 -197l-119 -665q-8 -45 -12 -80t-4 -64q0 -59 26.5 -77.5t96.5 -18.5l-9 -43h-430zM350 1395l221 178q25 20 48.5 34.5t49.5 14.5 q27 0 40.5 -18.5t9.5 -40.5q-4 -20 -22 -37t-38 -25l-303 -120z" />
<glyph unicode="&#xce;" horiz-adv-x="567" d="M16 0l9 43q94 0 129.5 44t62.5 196l117 665q8 49 12 80t4 62q0 59 -26.5 77.5t-96.5 18.5l6 43h431l-7 -43q-98 0 -130.5 -41t-59.5 -197l-119 -665q-8 -45 -12 -80t-4 -64q0 -59 26.5 -77.5t96.5 -18.5l-9 -43h-430zM170 1405l291 266l198 -266l-30 -23l-193 156 l-246 -156z" />
<glyph unicode="&#xcf;" horiz-adv-x="567" d="M16 0l9 43q94 0 129.5 44t62.5 196l117 665q8 49 12 80t4 62q0 59 -26.5 77.5t-96.5 18.5l6 43h431l-7 -43q-98 0 -130.5 -41t-59.5 -197l-119 -665q-8 -45 -12 -80t-4 -64q0 -59 26.5 -77.5t96.5 -18.5l-9 -43h-430zM235 1462q6 33 34 56.5t61 23.5q35 0 53 -22.5 t14 -57.5q-6 -35 -33.5 -58.5t-62.5 -23.5t-53.5 22.5t-12.5 59.5zM508 1462q4 31 32.5 55.5t61.5 24.5t52.5 -23.5t13.5 -56.5q-6 -35 -34 -58.5t-61 -23.5q-35 0 -53 22.5t-12 59.5z" />
<glyph unicode="&#xd0;" horiz-adv-x="1138" d="M16 0l9 43q94 0 129.5 44t62.5 196l51 290h-184l16 91h183l51 284q8 49 12 80t4 62q0 59 -26.5 77.5t-96.5 18.5l6 43h429q213 0 316 -121t103 -328q0 -74 -30.5 -255t-189.5 -353t-415 -172h-430zM328 170q0 -55 25.5 -74.5t95.5 -19.5q219 0 326.5 155.5t130 288.5 t28.5 190.5t6 96.5q0 158 -66.5 252t-232.5 94h-149l-86 -489h169l-16 -91h-170l-45 -260q-8 -45 -12 -79.5t-4 -63.5z" />
<glyph unicode="&#xd1;" horiz-adv-x="1253" d="M-27 88q4 27 19.5 43t42.5 16q35 0 45 -50t49 -50t73 64.5t64 240.5l107 596q8 49 12 79t4 60q0 59 -26.5 79t-98.5 20l8 43h244l402 -942l102 585q39 227 98.5 309.5t153.5 82.5q61 0 93 -40t24 -83q-4 -27 -19.5 -43.5t-42.5 -16.5q-37 0 -45 50.5t-47 50.5 q-51 0 -83 -84t-56 -221l-162 -912h-37l-440 1039l-113 -648q-41 -225 -101.5 -308t-154.5 -83q-61 0 -92 39t-23 84zM535 1401q14 86 62 142.5t103 56.5q43 0 124 -56.5t114 -56.5q64 0 107 98h32q-39 -203 -178 -203q-37 0 -120 56.5t-111 56.5q-27 0 -55.5 -26.5 t-47.5 -67.5h-30z" />
<glyph unicode="&#xd2;" horiz-adv-x="1286" d="M174 477q0 66 29.5 236t213 360.5t396.5 190.5q182 0 296 -144.5t114 -365.5q0 -68 -30 -238t-213 -360.5t-396 -190.5q-182 0 -296 144.5t-114 367.5zM330 449q0 -174 64.5 -288t205.5 -114q176 0 295 172t145.5 330t26.5 242q0 170 -64.5 281.5t-203.5 111.5 q-172 0 -293 -174t-144.5 -304.5t-27.5 -173.5t-4 -83zM559 1562q4 23 22.5 41.5t44.5 18.5q29 0 48.5 -15.5t33.5 -31.5l160 -181l-12 -12l-263 119q-20 12 -29 28.5t-5 32.5z" />
<glyph unicode="&#xd3;" horiz-adv-x="1286" d="M174 477q0 66 29.5 236t213 360.5t396.5 190.5q182 0 296 -144.5t114 -365.5q0 -68 -30 -238t-213 -360.5t-396 -190.5q-182 0 -296 144.5t-114 367.5zM330 449q0 -174 64.5 -288t205.5 -114q176 0 295 172t145.5 330t26.5 242q0 170 -64.5 281.5t-203.5 111.5 q-172 0 -293 -174t-144.5 -304.5t-27.5 -173.5t-4 -83zM696 1395l221 178q25 20 48.5 34.5t49.5 14.5q27 0 40.5 -18.5t9.5 -40.5q-4 -20 -22 -37t-38 -25l-303 -120z" />
<glyph unicode="&#xd4;" horiz-adv-x="1286" d="M174 477q0 66 29.5 236t213 360.5t396.5 190.5q182 0 296 -144.5t114 -365.5q0 -68 -30 -238t-213 -360.5t-396 -190.5q-182 0 -296 144.5t-114 367.5zM330 449q0 -174 64.5 -288t205.5 -114q176 0 295 172t145.5 330t26.5 242q0 170 -64.5 281.5t-203.5 111.5 q-172 0 -293 -174t-144.5 -304.5t-27.5 -173.5t-4 -83zM549 1405l291 266l198 -266l-30 -23l-193 156l-246 -156z" />
<glyph unicode="&#xd5;" horiz-adv-x="1286" d="M174 477q0 66 29.5 236t213 360.5t396.5 190.5q182 0 296 -144.5t114 -365.5q0 -68 -30 -238t-213 -360.5t-396 -190.5q-182 0 -296 144.5t-114 367.5zM330 449q0 -174 64.5 -288t205.5 -114q176 0 295 172t145.5 330t26.5 242q0 170 -64.5 281.5t-203.5 111.5 q-172 0 -293 -174t-144.5 -304.5t-27.5 -173.5t-4 -83zM555 1401q14 86 62 142.5t103 56.5q43 0 124 -56.5t114 -56.5q64 0 107 98h32q-39 -203 -178 -203q-37 0 -120 56.5t-111 56.5q-27 0 -55.5 -26.5t-47.5 -67.5h-30z" />
<glyph unicode="&#xd6;" horiz-adv-x="1286" d="M174 477q0 66 29.5 236t213 360.5t396.5 190.5q182 0 296 -144.5t114 -365.5q0 -68 -30 -238t-213 -360.5t-396 -190.5q-182 0 -296 144.5t-114 367.5zM330 449q0 -174 64.5 -288t205.5 -114q176 0 295 172t145.5 330t26.5 242q0 170 -64.5 281.5t-203.5 111.5 q-172 0 -293 -174t-144.5 -304.5t-27.5 -173.5t-4 -83zM583 1462q6 33 34 56.5t61 23.5q35 0 53 -22.5t14 -57.5q-6 -35 -33.5 -58.5t-62.5 -23.5t-53.5 22.5t-12.5 59.5zM856 1462q4 31 32.5 55.5t61.5 24.5t52.5 -23.5t13.5 -56.5q-6 -35 -34 -58.5t-61 -23.5 q-35 0 -53 22.5t-12 59.5z" />
<glyph unicode="&#xd7;" horiz-adv-x="0" />
<glyph unicode="&#xd8;" horiz-adv-x="1286" d="M174 479q0 63 12 135q47 268 230.5 459t396.5 191q115 0 207 -64l76 117l49 -37l-76 -117q72 -70 113 -175t41 -234q0 -68 -30 -238t-213 -360.5t-396 -190.5q-133 0 -232 82l-88 -135l-49 37l90 141q-63 72 -97 171t-34 218zM330 446q0 -145 45 -249l592 919 q-63 68 -168 68q-174 0 -295 -173t-147.5 -323.5t-26.5 -241.5zM410 139q70 -92 190 -92q174 0 295 174t147.5 330t26.5 242q0 80 -14.5 149.5t-46.5 122.5z" />
<glyph unicode="&#xd9;" horiz-adv-x="1193" d="M229 1186l7 43h428l-7 -43q-98 0 -130.5 -41t-59.5 -197l-90 -502q-12 -72 -12 -124q0 -131 58 -198t163 -67q119 0 210 98.5t124 290.5l90 502q8 49 12 80t4 62q0 59 -26.5 77.5t-96.5 18.5l6 43h383l-6 -43q-98 0 -130.5 -41t-61.5 -197l-86 -491 q-41 -231 -173.5 -361.5t-295.5 -130.5q-135 0 -219 93.5t-84 263.5q0 61 12 135l86 491q8 47 12 81t4 63q0 55 -25.5 74.5t-95.5 19.5zM498 1562q4 23 22.5 41.5t44.5 18.5q29 0 48.5 -15.5t33.5 -31.5l160 -181l-12 -12l-263 119q-20 12 -29 28.5t-5 32.5z" />
<glyph unicode="&#xda;" horiz-adv-x="1193" d="M229 1186l7 43h428l-7 -43q-98 0 -130.5 -41t-59.5 -197l-90 -502q-12 -72 -12 -124q0 -131 58 -198t163 -67q119 0 210 98.5t124 290.5l90 502q8 49 12 80t4 62q0 59 -26.5 77.5t-96.5 18.5l6 43h383l-6 -43q-98 0 -130.5 -41t-61.5 -197l-86 -491 q-41 -231 -173.5 -361.5t-295.5 -130.5q-135 0 -219 93.5t-84 263.5q0 61 12 135l86 491q8 47 12 81t4 63q0 55 -25.5 74.5t-95.5 19.5zM688 1395l221 178q25 20 48.5 34.5t49.5 14.5q27 0 40.5 -18.5t9.5 -40.5q-4 -20 -22 -37t-38 -25l-303 -120z" />
<glyph unicode="&#xdb;" horiz-adv-x="1193" d="M229 1186l7 43h428l-7 -43q-98 0 -130.5 -41t-59.5 -197l-90 -502q-12 -72 -12 -124q0 -131 58 -198t163 -67q119 0 210 98.5t124 290.5l90 502q8 49 12 80t4 62q0 59 -26.5 77.5t-96.5 18.5l6 43h383l-6 -43q-98 0 -130.5 -41t-61.5 -197l-86 -491 q-41 -231 -173.5 -361.5t-295.5 -130.5q-135 0 -219 93.5t-84 263.5q0 61 12 135l86 491q8 47 12 81t4 63q0 55 -25.5 74.5t-95.5 19.5zM504 1405l291 266l198 -266l-30 -23l-193 156l-246 -156z" />
<glyph unicode="&#xdc;" horiz-adv-x="1193" d="M229 1186l7 43h428l-7 -43q-98 0 -130.5 -41t-59.5 -197l-90 -502q-12 -72 -12 -124q0 -131 58 -198t163 -67q119 0 210 98.5t124 290.5l90 502q8 49 12 80t4 62q0 59 -26.5 77.5t-96.5 18.5l6 43h383l-6 -43q-98 0 -130.5 -41t-61.5 -197l-86 -491 q-41 -231 -173.5 -361.5t-295.5 -130.5q-135 0 -219 93.5t-84 263.5q0 61 12 135l86 491q8 47 12 81t4 63q0 55 -25.5 74.5t-95.5 19.5zM581 1464q6 33 34 56.5t61 23.5q35 0 53 -22.5t14 -57.5q-6 -35 -33.5 -58.5t-62.5 -23.5t-53.5 22.5t-12.5 59.5zM854 1464 q4 31 32.5 55.5t61.5 24.5t52.5 -23.5t13.5 -56.5q-6 -35 -34 -58.5t-61 -23.5q-35 0 -53 22.5t-12 59.5z" />
<glyph unicode="&#xdd;" horiz-adv-x="956" d="M180 1130v48q35 37 77 54t81 17q117 0 167 -135t50 -469q104 289 207.5 445.5t222.5 156.5q61 0 93 -40t24 -83q-6 -27 -20.5 -42t-41.5 -15q-37 0 -51 49t-51 49q-88 0 -220 -273.5t-171 -498.5l-21 -110q-8 -45 -12 -80t-4 -64q0 -57 25.5 -76.5t95.5 -19.5l-6 -43 h-435l9 43q94 0 130 44t62 196l19 102q23 121 31 214t8 183q0 201 -48.5 298.5t-119.5 97.5q-23 0 -53.5 -16.5t-47.5 -31.5zM614 1397l221 178q25 20 48.5 34.5t49.5 14.5q27 0 40.5 -18.5t9.5 -40.5q-4 -20 -22 -37t-38 -25l-303 -120z" />
<glyph unicode="&#xde;" horiz-adv-x="753" d="M-182 -512l8 43q104 0 140 42t63 196l204 1161q18 102 19 153q0 51 -21.5 68.5t-74.5 17.5l6 43l244 52l-101 -582q39 18 69.5 26.5t71.5 8.5q115 0 184.5 -82t69.5 -211q0 -43 -17 -142.5t-112.5 -208t-222.5 -108.5q-47 0 -86 24.5t-67 69.5l-52 -290q-14 -80 -14 -134 q0 -61 29.5 -82.5t105.5 -21.5l-8 -43h-438zM223 193q0 -66 34 -106t85 -40q82 0 139.5 83t73.5 178t16 138q0 90 -33.5 147.5t-101.5 57.5q-47 0 -80.5 -13t-64.5 -38l-64 -362q-4 -33 -4 -45z" />
<glyph unicode="&#xdf;" horiz-adv-x="856" d="M-221 -416q0 72 67 72q41 0 49.5 -71.5t63.5 -71.5q45 0 76 61t57 207l109 614l39 215h-162l6 41q102 0 139 40t68 212t136 266.5t245 94.5q98 0 150 -58.5t52 -146.5l-4 -47q-14 -78 -152 -232.5t-153 -234.5q0 -29 14.5 -50.5t51.5 -58.5l71 -69q72 -66 72 -160 q0 -20 -9 -74.5t-79 -111t-149 -56.5q-84 0 -130.5 40t-46.5 89q0 51 50 58q37 6 54 -59.5t95 -65.5q49 0 77 29.5t36 72.5q6 39 -13.5 79t-48.5 64l-71 72q-72 66 -72 160q0 18 8 63t131 206t133.5 218.5t10.5 77.5q0 57 -29 92t-82 35q-88 0 -147.5 -72.5t-90.5 -244.5 l-194 -1098q-31 -172 -100.5 -250t-165.5 -78q-78 0 -120 40t-42 91z" />
<glyph unicode="&#xe0;" d="M70 248v57q6 25 21 108t126 193.5t240 110.5q70 0 133 -35h112l-96 -551q-4 -29 -4 -41q0 -43 27 -43q16 0 39.5 14.5t42.5 30.5v-47q-72 -72 -136 -72q-90 0 -90 95q-39 -45 -92 -74t-102 -29q-106 0 -163.5 78t-57.5 205zM199 231q0 -86 31.5 -135t97.5 -49 q59 0 113.5 54.5t68.5 136.5l63 362q-18 18 -51 34.5t-76 16.5q-86 0 -149.5 -89t-80.5 -184t-17 -147zM306 1017q4 23 22.5 41.5t44.5 18.5q29 0 48.5 -15.5t33.5 -31.5l160 -181l-12 -12l-263 119q-20 12 -29 28.5t-5 32.5z" />
<glyph unicode="&#xe1;" d="M70 248v57q6 25 21 108t126 193.5t240 110.5q70 0 133 -35h112l-96 -551q-4 -29 -4 -41q0 -43 27 -43q16 0 39.5 14.5t42.5 30.5v-47q-72 -72 -136 -72q-90 0 -90 95q-39 -45 -92 -74t-102 -29q-106 0 -163.5 78t-57.5 205zM199 231q0 -86 31.5 -135t97.5 -49 q59 0 113.5 54.5t68.5 136.5l63 362q-18 18 -51 34.5t-76 16.5q-86 0 -149.5 -89t-80.5 -184t-17 -147zM471 850l221 178q25 20 48.5 34.5t49.5 14.5q27 0 40.5 -18.5t9.5 -40.5q-4 -20 -22 -37t-38 -25l-303 -120z" />
<glyph unicode="&#xe2;" d="M70 248v57q6 25 21 108t126 193.5t240 110.5q70 0 133 -35h112l-96 -551q-4 -29 -4 -41q0 -43 27 -43q16 0 39.5 14.5t42.5 30.5v-47q-72 -72 -136 -72q-90 0 -90 95q-39 -45 -92 -74t-102 -29q-106 0 -163.5 78t-57.5 205zM199 231q0 -86 31.5 -135t97.5 -49 q59 0 113.5 54.5t68.5 136.5l63 362q-18 18 -51 34.5t-76 16.5q-86 0 -149.5 -89t-80.5 -184t-17 -147zM244 861l291 266l198 -266l-30 -23l-193 156l-246 -156z" />
<glyph unicode="&#xe3;" d="M70 248v57q6 25 21 108t126 193.5t240 110.5q70 0 133 -35h112l-96 -551q-4 -29 -4 -41q0 -43 27 -43q16 0 39.5 14.5t42.5 30.5v-47q-72 -72 -136 -72q-90 0 -90 95q-39 -45 -92 -74t-102 -29q-106 0 -163.5 78t-57.5 205zM199 231q0 -86 31.5 -135t97.5 -49 q59 0 113.5 54.5t68.5 136.5l63 362q-18 18 -51 34.5t-76 16.5q-86 0 -149.5 -89t-80.5 -184t-17 -147zM254 856q14 86 62 142.5t103 56.5q43 0 124 -56.5t114 -56.5q64 0 107 98h32q-39 -203 -178 -203q-37 0 -120 56.5t-111 56.5q-27 0 -55.5 -26.5t-47.5 -67.5h-30z" />
<glyph unicode="&#xe4;" d="M70 248v57q6 25 21 108t126 193.5t240 110.5q70 0 133 -35h112l-96 -551q-4 -29 -4 -41q0 -43 27 -43q16 0 39.5 14.5t42.5 30.5v-47q-72 -72 -136 -72q-90 0 -90 95q-39 -45 -92 -74t-102 -29q-106 0 -163.5 78t-57.5 205zM199 231q0 -86 31.5 -135t97.5 -49 q59 0 113.5 54.5t68.5 136.5l63 362q-18 18 -51 34.5t-76 16.5q-86 0 -149.5 -89t-80.5 -184t-17 -147zM323 918q6 33 34 56.5t61 23.5q35 0 53 -22.5t14 -57.5q-6 -35 -33.5 -58.5t-62.5 -23.5t-53.5 22.5t-12.5 59.5zM596 918q4 31 32.5 55.5t61.5 24.5t52.5 -23.5 t13.5 -56.5q-6 -35 -34 -58.5t-61 -23.5q-35 0 -53 22.5t-12 59.5z" />
<glyph unicode="&#xe5;" d="M70 248v57q6 25 21 108t126 193.5t240 110.5q70 0 133 -35h112l-96 -551q-4 -29 -4 -41q0 -43 27 -43q16 0 39.5 14.5t42.5 30.5v-47q-72 -72 -136 -72q-90 0 -90 95q-39 -45 -92 -74t-102 -29q-106 0 -163.5 78t-57.5 205zM199 231q0 -86 31.5 -135t97.5 -49 q59 0 113.5 54.5t68.5 136.5l63 362q-18 18 -51 34.5t-76 16.5q-86 0 -149.5 -89t-80.5 -184t-17 -147zM372 975q0 18 7.5 58t65.5 89t130 49q61 0 100 -39t39 -98q0 -21 -2 -31q-12 -72 -69.5 -121t-128.5 -49q-59 0 -100.5 41t-41.5 101zM450 1003q-6 -39 15.5 -66.5 t60.5 -27.5t71.5 26.5t38.5 67.5q8 37 -14 65.5t-61 28.5t-72 -26.5t-39 -67.5z" />
<glyph unicode="&#xe6;" horiz-adv-x="1026" d="M49 106q0 10 12.5 84t128 141.5t291.5 104.5q6 37 10.5 68t4.5 55q0 92 -90 92q-41 0 -81 -26.5t-49.5 -85t-68.5 -58.5q-25 0 -38 19.5t-9 52.5q14 72 86.5 118t159.5 46q164 0 184 -117q111 117 225 117q70 0 112 -40t42 -106q0 -20 -9.5 -70t-107.5 -131t-279 -118 q0 -98 39 -151.5t123 -53.5q37 0 91.5 27.5t95.5 66.5l18 -41q-49 -57 -120.5 -96t-137.5 -39q-86 0 -143.5 55.5t-75.5 149.5q-55 -96 -131 -146.5t-154 -50.5q-57 0 -93 36t-36 97zM174 135q0 -70 68 -69q53 0 111.5 52t97.5 144l18 111q-139 -35 -209 -82t-78 -93t-8 -63 zM580 307q123 31 195.5 96.5t86.5 135.5q2 8 2 24q0 72 -61 72q-74 0 -134.5 -79t-84.5 -216z" />
<glyph unicode="&#xe7;" horiz-adv-x="598" d="M27 -502l10 56q63 25 111.5 57.5t58.5 95.5q12 80 -90 80q-33 0 -70 -12l6 28l168 170q-76 20 -114.5 88t-38.5 170v35t19 123.5t123.5 216t205.5 111.5q92 0 131 -44t31 -91q-6 -31 -22.5 -49.5t-53.5 -18.5q-43 0 -49.5 68.5t-46.5 68.5q-59 0 -121 -86t-78.5 -174 t-18.5 -112.5t-2 -45.5q0 -186 152 -186q88 0 180 94l21 -41q-55 -63 -120 -99t-128 -36l-96 -96q45 0 80.5 -34t35.5 -95q0 -20 -9 -74.5t-103.5 -104.5t-171.5 -63z" />
<glyph unicode="&#xe8;" horiz-adv-x="641" d="M70 252v36.5t19.5 114t124.5 206t216 108.5q70 0 112 -40t42 -106q0 -10 -10.5 -64t-108.5 -136t-277 -119q0 -98 39 -151.5t123 -53.5q37 0 91.5 27.5t95.5 66.5l18 -41q-53 -59 -123 -97t-135 -38q-106 0 -166.5 80t-60.5 207zM193 307q125 31 197.5 96.5t86.5 135.5 q2 8 2 24q0 72 -63 72q-72 0 -132.5 -80t-84.5 -215zM254 1017q4 23 22.5 41.5t44.5 18.5q29 0 48.5 -15.5t33.5 -31.5l160 -181l-12 -12l-263 119q-20 12 -29 28.5t-5 32.5z" />
<glyph unicode="&#xe9;" horiz-adv-x="641" d="M70 252v36.5t19.5 114t124.5 206t216 108.5q70 0 112 -40t42 -106q0 -10 -10.5 -64t-108.5 -136t-277 -119q0 -98 39 -151.5t123 -53.5q37 0 91.5 27.5t95.5 66.5l18 -41q-53 -59 -123 -97t-135 -38q-106 0 -166.5 80t-60.5 207zM193 307q125 31 197.5 96.5t86.5 135.5 q2 8 2 24q0 72 -63 72q-72 0 -132.5 -80t-84.5 -215zM330 850l221 178q25 20 48.5 34.5t49.5 14.5q27 0 40.5 -18.5t9.5 -40.5q-4 -20 -22 -37t-38 -25l-303 -120z" />
<glyph unicode="&#xea;" horiz-adv-x="641" d="M70 252v36.5t19.5 114t124.5 206t216 108.5q70 0 112 -40t42 -106q0 -10 -10.5 -64t-108.5 -136t-277 -119q0 -98 39 -151.5t123 -53.5q37 0 91.5 27.5t95.5 66.5l18 -41q-53 -59 -123 -97t-135 -38q-106 0 -166.5 80t-60.5 207zM193 307q125 31 197.5 96.5t86.5 135.5 q2 8 2 24q0 72 -63 72q-72 0 -132.5 -80t-84.5 -215zM205 861l291 266l198 -266l-30 -23l-193 156l-246 -156z" />
<glyph unicode="&#xeb;" horiz-adv-x="641" d="M70 252v36.5t19.5 114t124.5 206t216 108.5q70 0 112 -40t42 -106q0 -10 -10.5 -64t-108.5 -136t-277 -119q0 -98 39 -151.5t123 -53.5q37 0 91.5 27.5t95.5 66.5l18 -41q-53 -59 -123 -97t-135 -38q-106 0 -166.5 80t-60.5 207zM193 307q125 31 197.5 96.5t86.5 135.5 q2 8 2 24q0 72 -63 72q-72 0 -132.5 -80t-84.5 -215zM237 918q6 33 34 56.5t61 23.5q35 0 53 -22.5t14 -57.5q-6 -35 -33.5 -58.5t-62.5 -23.5t-53.5 22.5t-12.5 59.5zM510 918q4 31 32.5 55.5t61.5 24.5t52.5 -23.5t13.5 -56.5q-6 -35 -34 -58.5t-61 -23.5q-35 0 -53 22.5 t-12 59.5z" />
<glyph unicode="&#xec;" horiz-adv-x="421" d="M37 1009q4 23 22.5 41.5t44.5 18.5q29 0 48.5 -15.5t33.5 -31.5l160 -181l-12 -12l-263 119q-20 12 -29 28.5t-5 32.5zM96 590v49q66 70 133 70q92 0 93 -105q0 -12 -5 -37l-75 -436q-6 -25 -6 -43q-1 -41 26 -41q18 0 42 14.5t40 30.5v-47q-72 -72 -133 -72 q-92 0 -92 107q0 12 4 37l78 434q4 33 4 43q0 43 -27 43q-18 0 -41.5 -14.5t-40.5 -32.5z" />
<glyph unicode="&#xed;" horiz-adv-x="421" d="M96 590v49q66 70 133 70q92 0 93 -105q0 -12 -5 -37l-75 -436q-6 -25 -6 -43q-1 -41 26 -41q18 0 42 14.5t40 30.5v-47q-72 -72 -133 -72q-92 0 -92 107q0 12 4 37l78 434q4 33 4 43q0 43 -27 43q-18 0 -41.5 -14.5t-40.5 -32.5zM211 850l221 178q25 20 48.5 34.5 t49.5 14.5q27 0 40.5 -18.5t9.5 -40.5q-4 -20 -22 -37t-38 -25l-303 -120z" />
<glyph unicode="&#xee;" horiz-adv-x="421" d="M25 859l291 266l198 -266l-30 -23l-193 156l-246 -156zM96 590v49q66 70 133 70q92 0 93 -105q0 -12 -5 -37l-75 -436q-6 -25 -6 -43q-1 -41 26 -41q18 0 42 14.5t40 30.5v-47q-72 -72 -133 -72q-92 0 -92 107q0 12 4 37l78 434q4 33 4 43q0 43 -27 43q-18 0 -41.5 -14.5 t-40.5 -32.5z" />
<glyph unicode="&#xef;" horiz-adv-x="421" d="M55 918q6 33 34 56.5t61 23.5q35 0 53 -22.5t14 -57.5q-6 -35 -33.5 -58.5t-62.5 -23.5t-53.5 22.5t-12.5 59.5zM96 590v49q66 70 133 70q92 0 93 -105q0 -12 -5 -37l-75 -436q-6 -25 -6 -43q-1 -41 26 -41q18 0 42 14.5t40 30.5v-47q-72 -72 -133 -72q-92 0 -92 107 q0 12 4 37l78 434q4 33 4 43q0 43 -27 43q-18 0 -41.5 -14.5t-40.5 -32.5zM328 918q4 31 32.5 55.5t61.5 24.5t52.5 -23.5t13.5 -56.5q-6 -35 -34 -58.5t-61 -23.5q-35 0 -53 22.5t-12 59.5z" />
<glyph unicode="&#xf1;" horiz-adv-x="821" d="M96 590v49q66 70 133 70q92 0 93 -105q0 -12 -5 -37l-4 -18q45 76 108.5 122t129.5 46q80 0 118 -53.5t38 -147.5q0 -43 -11 -104l-47 -281q-4 -29 -4 -41q0 -43 27 -43q16 0 39.5 14.5t42.5 30.5v-47q-72 -72 -136 -72q-45 0 -67.5 29t-22.5 78q0 25 2 37l50 284 q10 61 10 101q0 59 -22.5 89t-73.5 30q-57 0 -127 -85t-95 -231l-55 -305h-115l99 551q4 33 4 43q0 43 -27 43q-18 0 -41.5 -14.5t-40.5 -32.5zM217 856q14 86 62 142.5t103 56.5q43 0 124 -56.5t114 -56.5q64 0 107 98h32q-39 -203 -178 -203q-37 0 -120 56.5t-111 56.5 q-27 0 -55.5 -26.5t-47.5 -67.5h-30z" />
<glyph unicode="&#xf2;" horiz-adv-x="776" d="M72 266q0 35 17 132.5t128 208t240 110.5q109 0 178.5 -84t69.5 -213q0 -37 -17.5 -135.5t-126 -209t-237.5 -110.5q-113 0 -182.5 86t-69.5 215zM199 225q0 -92 32.5 -144t102.5 -52q88 0 148.5 87t79 187t18.5 154q0 92 -33 144t-101 52q-88 0 -149 -87t-79.5 -186 t-18.5 -155zM244 1019q4 23 22.5 41.5t44.5 18.5q29 0 48.5 -15.5t33.5 -31.5l160 -181l-12 -12l-263 119q-20 12 -29 28.5t-5 32.5z" />
<glyph unicode="&#xf3;" horiz-adv-x="776" d="M72 266q0 35 17 132.5t128 208t240 110.5q109 0 178.5 -84t69.5 -213q0 -37 -17.5 -135.5t-126 -209t-237.5 -110.5q-113 0 -182.5 86t-69.5 215zM199 225q0 -92 32.5 -144t102.5 -52q88 0 148.5 87t79 187t18.5 154q0 92 -33 144t-101 52q-88 0 -149 -87t-79.5 -186 t-18.5 -155zM379 850l221 178q25 20 48.5 34.5t49.5 14.5q27 0 40.5 -18.5t9.5 -40.5q-4 -20 -22 -37t-38 -25l-303 -120z" />
<glyph unicode="&#xf4;" horiz-adv-x="776" d="M72 266q0 35 17 132.5t128 208t240 110.5q109 0 178.5 -84t69.5 -213q0 -37 -17.5 -135.5t-126 -209t-237.5 -110.5q-113 0 -182.5 86t-69.5 215zM199 225q0 -92 32.5 -144t102.5 -52q88 0 148.5 87t79 187t18.5 154q0 92 -33 144t-101 52q-88 0 -149 -87t-79.5 -186 t-18.5 -155zM223 861l291 266l198 -266l-30 -23l-193 156l-246 -156z" />
<glyph unicode="&#xf5;" horiz-adv-x="776" d="M72 266q0 35 17 132.5t128 208t240 110.5q109 0 178.5 -84t69.5 -213q0 -37 -17.5 -135.5t-126 -209t-237.5 -110.5q-113 0 -182.5 86t-69.5 215zM199 225q0 -92 32.5 -144t102.5 -52q88 0 148.5 87t79 187t18.5 154q0 92 -33 144t-101 52q-88 0 -149 -87t-79.5 -186 t-18.5 -155zM215 856q14 86 62 142.5t103 56.5q43 0 124 -56.5t114 -56.5q64 0 107 98h32q-39 -203 -178 -203q-37 0 -120 56.5t-111 56.5q-27 0 -55.5 -26.5t-47.5 -67.5h-30z" />
<glyph unicode="&#xf6;" horiz-adv-x="776" d="M72 266q0 35 17 132.5t128 208t240 110.5q109 0 178.5 -84t69.5 -213q0 -37 -17.5 -135.5t-126 -209t-237.5 -110.5q-113 0 -182.5 86t-69.5 215zM199 225q0 -92 32.5 -144t102.5 -52q88 0 148.5 87t79 187t18.5 154q0 92 -33 144t-101 52q-88 0 -149 -87t-79.5 -186 t-18.5 -155zM256 918q6 33 34 56.5t61 23.5q35 0 53 -22.5t14 -57.5q-6 -35 -33.5 -58.5t-62.5 -23.5t-53.5 22.5t-12.5 59.5zM529 918q4 31 32.5 55.5t61.5 24.5t52.5 -23.5t13.5 -56.5q-6 -35 -34 -58.5t-61 -23.5q-35 0 -53 22.5t-12 59.5z" />
<glyph unicode="&#xf7;" horiz-adv-x="937" d="M195 426l16 90h596l-14 -90h-598zM352 172q0 12 5 33.5t39 52.5t71 31q41 0 65.5 -29t16.5 -70t-42 -70.5t-75 -29.5q-35 0 -57.5 22.5t-22.5 59.5zM453 733q0 12 4 36t36.5 52.5t73.5 28.5q39 0 63.5 -28.5t18.5 -69.5q-8 -39 -44 -70t-75 -31q-37 0 -57 22.5t-20 59.5z " />
<glyph unicode="&#xf8;" horiz-adv-x="788" d="M72 266q0 35 6 76q29 154 139.5 264.5t239.5 110.5q70 0 123 -35l57 88l47 -37l-57 -90q78 -84 78 -223q0 -37 -17.5 -135.5t-126 -209t-237.5 -110.5q-63 0 -115 29l-53 -82l-47 37l51 82q-43 41 -65.5 101.5t-22.5 133.5zM201 223q0 -61 14 -104l320 493q-31 41 -89 41 q-88 0 -149 -87t-78.5 -188.5t-17.5 -121.5v-33zM252 61q16 -16 34.5 -24t47.5 -8q88 0 148.5 87t75.5 170t17.5 111.5t2.5 59.5q0 47 -11 92z" />
<glyph unicode="&#xf9;" horiz-adv-x="821" d="M96 590v49q66 70 133 70q92 0 93 -105q0 -12 -5 -37l-51 -284q-10 -57 -10 -72.5v-26.5q0 -59 22.5 -90t75.5 -31q59 0 128 84t96 230l53 305h114l-96 -551q-4 -29 -4 -41q0 -43 27 -43q16 0 39.5 14.5t42.5 30.5v-47q-73 -72 -136 -72q-45 0 -67.5 29t-22.5 78 q0 25 2 37l5 16q-45 -76 -110 -122t-130 -46q-80 0 -118 53.5t-38 149.5q0 43 11 104l51 279q4 33 4 43q0 43 -27 43q-18 0 -41.5 -14.5t-40.5 -32.5zM260 1015q4 23 22.5 41.5t44.5 18.5q29 0 48.5 -15.5t33.5 -31.5l160 -181l-12 -12l-263 119q-20 12 -29 28.5t-5 32.5z " />
<glyph unicode="&#xfa;" horiz-adv-x="821" d="M96 590v49q66 70 133 70q92 0 93 -105q0 -12 -5 -37l-51 -284q-10 -57 -10 -72.5v-26.5q0 -59 22.5 -90t75.5 -31q59 0 128 84t96 230l53 305h114l-96 -551q-4 -29 -4 -41q0 -43 27 -43q16 0 39.5 14.5t42.5 30.5v-47q-73 -72 -136 -72q-45 0 -67.5 29t-22.5 78 q0 25 2 37l5 16q-45 -76 -110 -122t-130 -46q-80 0 -118 53.5t-38 149.5q0 43 11 104l51 279q4 33 4 43q0 43 -27 43q-18 0 -41.5 -14.5t-40.5 -32.5zM379 848l221 178q25 20 48.5 34.5t49.5 14.5q27 0 40.5 -18.5t9.5 -40.5q-4 -20 -22 -37t-38 -25l-303 -120z" />
<glyph unicode="&#xfb;" horiz-adv-x="821" d="M96 590v49q66 70 133 70q92 0 93 -105q0 -12 -5 -37l-51 -284q-10 -57 -10 -72.5v-26.5q0 -59 22.5 -90t75.5 -31q59 0 128 84t96 230l53 305h114l-96 -551q-4 -29 -4 -41q0 -43 27 -43q16 0 39.5 14.5t42.5 30.5v-47q-73 -72 -136 -72q-45 0 -67.5 29t-22.5 78 q0 25 2 37l5 16q-45 -76 -110 -122t-130 -46q-80 0 -118 53.5t-38 149.5q0 43 11 104l51 279q4 33 4 43q0 43 -27 43q-18 0 -41.5 -14.5t-40.5 -32.5zM248 861l291 266l198 -266l-30 -23l-193 156l-246 -156z" />
<glyph unicode="&#xfc;" horiz-adv-x="821" d="M96 590v49q66 70 133 70q92 0 93 -105q0 -12 -5 -37l-51 -284q-10 -57 -10 -72.5v-26.5q0 -59 22.5 -90t75.5 -31q59 0 128 84t96 230l53 305h114l-96 -551q-4 -29 -4 -41q0 -43 27 -43q16 0 39.5 14.5t42.5 30.5v-47q-73 -72 -136 -72q-45 0 -67.5 29t-22.5 78 q0 25 2 37l5 16q-45 -76 -110 -122t-130 -46q-80 0 -118 53.5t-38 149.5q0 43 11 104l51 279q4 33 4 43q0 43 -27 43q-18 0 -41.5 -14.5t-40.5 -32.5zM274 918q6 33 34 56.5t61 23.5q35 0 53 -22.5t14 -57.5q-6 -35 -33.5 -58.5t-62.5 -23.5t-53.5 22.5t-12.5 59.5zM547 918 q4 31 32.5 55.5t61.5 24.5t52.5 -23.5t13.5 -56.5q-6 -35 -34 -58.5t-61 -23.5q-35 0 -53 22.5t-12 59.5z" />
<glyph unicode="&#xfd;" horiz-adv-x="632" d="M-541 -436q4 20 24.5 43.5t39.5 23.5q12 0 46 -44t101 -44q111 0 247 86t263 230q16 113 25.5 213t9.5 186q0 188 -37 284.5t-90 96.5q-18 0 -51 -18.5t-43 -30.5v49q29 31 69.5 50.5t79.5 19.5q88 0 136.5 -112t48.5 -314q0 -119 -19 -265q72 109 118 206.5t60 191.5 q8 47 9 90q0 84 -37 127t-35 59q0 16 15.5 27.5t35.5 11.5q39 0 68.5 -43t29.5 -131q0 -47 -37.5 -260t-348 -527.5t-572.5 -314.5q-84 0 -123 33t-33 76zM346 850l221 178q25 20 48.5 34.5t49.5 14.5q27 0 40.5 -18.5t9.5 -40.5q-4 -20 -22 -37t-38 -25l-303 -120z" />
<glyph unicode="&#xfe;" horiz-adv-x="872" d="M16 0l9 43q94 0 129.5 44t62.5 196l127 710q4 25 7 46.5t3 47.5q0 59 -27.5 79t-99.5 20l6 43h420l-6 -43q-90 0 -124 -36t-58 -157h145q125 0 200 -78.5t75 -199.5q0 -33 -15.5 -123t-127 -189.5t-255.5 -99.5h-145l-4 -20q-8 -45 -12 -80t-4 -64q0 -59 26.5 -77.5 t95.5 -18.5l-8 -43h-420zM354 377h113q100 0 178 77.5t98 192.5q6 31 7 60q0 92 -50.5 151.5t-136.5 59.5h-112z" />
<glyph unicode="&#xff;" horiz-adv-x="632" d="M-541 -436q4 20 24.5 43.5t39.5 23.5q12 0 46 -44t101 -44q111 0 247 86t263 230q16 113 25.5 213t9.5 186q0 188 -37 284.5t-90 96.5q-18 0 -51 -18.5t-43 -30.5v49q29 31 69.5 50.5t79.5 19.5q88 0 136.5 -112t48.5 -314q0 -119 -19 -265q72 109 118 206.5t60 191.5 q8 47 9 90q0 84 -37 127t-35 59q0 16 15.5 27.5t35.5 11.5q39 0 68.5 -43t29.5 -131q0 -47 -37.5 -260t-348 -527.5t-572.5 -314.5q-84 0 -123 33t-33 76zM118 918q6 33 34 56.5t61 23.5q35 0 53 -22.5t14 -57.5q-6 -35 -33.5 -58.5t-62.5 -23.5t-53.5 22.5t-12.5 59.5z M391 918q4 31 32.5 55.5t61.5 24.5t52.5 -23.5t13.5 -56.5q-6 -35 -34 -58.5t-61 -23.5q-35 0 -53 22.5t-12 59.5z" />
<glyph unicode="&#x152;" horiz-adv-x="1474" d="M174 477q0 66 29.5 236t213 360.5t396.5 190.5q84 0 158 -35h522l-33 -271h-33v41q0 88 -25.5 121t-125.5 33h-225l-82 -465h73q117 0 154 34t59 163h33l-82 -469h-32q12 66 12 104q0 57 -33 74.5t-123 17.5h-76l-53 -299q-8 -45 -12 -79.5t-4 -63.5q0 -57 26.5 -75.5 t96.5 -18.5h129q98 0 136 32.5t70 122.5l15 41h31l-62 -272h-573q-82 -35 -170 -35q-182 0 -296 144.5t-114 367.5zM326 440q0 -172 65.5 -282.5t208.5 -110.5q35 0 62.5 6t66.5 21l189 1081q-51 29 -119 29q-180 0 -299 -172t-142.5 -306.5t-27.5 -175.5t-4 -90z" />
<glyph unicode="&#x153;" horiz-adv-x="1134" d="M72 266q0 35 17 132.5t128 208t240 110.5q76 0 132 -39t87 -111q51 70 118.5 110t133.5 40q70 0 111.5 -40t41.5 -102q0 -20 -8 -71t-110.5 -134t-284.5 -122q0 -92 39 -146.5t131 -54.5q37 0 91 27.5t95 66.5l19 -41q-49 -57 -121 -96t-137 -39q-72 0 -124.5 38 t-78.5 108q-57 -70 -125 -108t-143 -38q-113 0 -182.5 86t-69.5 215zM199 225q0 -92 32.5 -144t102.5 -52q88 0 148.5 87t79 187t18.5 154q0 92 -33 144t-101 52q-88 0 -149 -87t-79.5 -186t-18.5 -155zM680 303q129 29 205 98.5t90 139.5q6 41 -10.5 67.5t-55.5 26.5 q-78 0 -138 -75t-87 -220z" />
<glyph unicode="&#x178;" horiz-adv-x="956" d="M180 1130v48q35 37 77 54t81 17q117 0 167 -135t50 -469q104 289 207.5 445.5t222.5 156.5q61 0 93 -40t24 -83q-6 -27 -20.5 -42t-41.5 -15q-37 0 -51 49t-51 49q-88 0 -220 -273.5t-171 -498.5l-21 -110q-8 -45 -12 -80t-4 -64q0 -57 25.5 -76.5t95.5 -19.5l-6 -43 h-435l9 43q94 0 130 44t62 196l19 102q23 121 31 214t8 183q0 201 -48.5 298.5t-119.5 97.5q-23 0 -53.5 -16.5t-47.5 -31.5zM452 1462q6 33 34 56.5t61 23.5q35 0 53 -22.5t14 -57.5q-6 -35 -33.5 -58.5t-62.5 -23.5t-53.5 22.5t-12.5 59.5zM725 1462q4 31 32.5 55.5 t61.5 24.5t52.5 -23.5t13.5 -56.5q-6 -35 -34 -58.5t-61 -23.5q-35 0 -53 22.5t-12 59.5z" />
<glyph unicode="&#x2000;" horiz-adv-x="859" />
<glyph unicode="&#x2001;" horiz-adv-x="1718" />
<glyph unicode="&#x2002;" horiz-adv-x="859" />
<glyph unicode="&#x2003;" horiz-adv-x="1718" />
<glyph unicode="&#x2004;" horiz-adv-x="572" />
<glyph unicode="&#x2005;" horiz-adv-x="429" />
<glyph unicode="&#x2006;" horiz-adv-x="286" />
<glyph unicode="&#x2007;" horiz-adv-x="286" />
<glyph unicode="&#x2008;" horiz-adv-x="214" />
<glyph unicode="&#x2009;" horiz-adv-x="343" />
<glyph unicode="&#x200a;" horiz-adv-x="95" />
<glyph unicode="&#x2010;" horiz-adv-x="937" d="M188 391l15 90h598l-17 -90h-596z" />
<glyph unicode="&#x2011;" horiz-adv-x="937" d="M188 391l15 90h598l-17 -90h-596z" />
<glyph unicode="&#x2012;" horiz-adv-x="937" d="M188 391l15 90h598l-17 -90h-596z" />
<glyph unicode="&#x2013;" horiz-adv-x="1075" d="M16 391l17 90h1077l-16 -90h-1078z" />
<glyph unicode="&#x2014;" horiz-adv-x="1366" d="M16 391l15 90h1368l-17 -90h-1366z" />
<glyph unicode="&#x2018;" horiz-adv-x="411" d="M248 1090q0 14 7 61t46 80t84 33q39 0 62.5 -30t15.5 -71q-6 -39 -40 -68.5t-73 -29.5l-16 2q0 -68 15.5 -113t64.5 -106l-29 -23q-68 47 -102.5 121t-34.5 144z" />
<glyph unicode="&#x2019;" horiz-adv-x="411" d="M197 848q66 57 100.5 108.5t54.5 110.5l-18 -2q-39 0 -61.5 28.5t-16.5 69.5q8 41 40 71t73 30t65.5 -23.5t24.5 -75.5q0 -20 -7.5 -63t-73 -131t-163.5 -146z" />
<glyph unicode="&#x201a;" horiz-adv-x="495" d="M12 -233q63 57 100.5 108t55.5 109h-18q-39 0 -61.5 28.5t-16.5 69.5q8 41 40.5 69.5t73.5 28.5q37 0 63.5 -24.5t26.5 -69.5l-4 -35q-12 -76 -76.5 -164t-164.5 -145z" />
<glyph unicode="&#x201c;" horiz-adv-x="753" d="M248 1090q0 14 7 61t46 80t84 33q39 0 62.5 -30t15.5 -71q-6 -39 -40 -68.5t-73 -29.5l-16 2q0 -68 15.5 -113t64.5 -106l-29 -23q-68 47 -102.5 121t-34.5 144zM588 1092q0 10 2 22l8 48t43 69t84 33q41 0 64.5 -30t15.5 -71q-8 -37 -42 -67.5t-71 -30.5l-18 2 q0 -61 17.5 -110.5t62.5 -108.5l-29 -23q-68 47 -102.5 121t-34.5 146z" />
<glyph unicode="&#x201d;" horiz-adv-x="753" d="M197 848q66 57 100.5 108.5t54.5 110.5l-18 -2q-39 0 -61.5 28.5t-16.5 69.5q8 41 40 71t73 30t65.5 -23.5t24.5 -75.5q0 -20 -7.5 -63t-73 -131t-163.5 -146zM539 848q66 57 100.5 107.5t52.5 111.5l-16 -2q-39 0 -61.5 28.5t-16.5 69.5q8 41 40 71t73 30t65.5 -23.5 t24.5 -75.5q0 -20 -7.5 -63t-73 -131t-163.5 -146z" />
<glyph unicode="&#x201e;" horiz-adv-x="753" d="M6 -233q63 57 99 108t55 109h-17q-39 0 -61.5 28.5t-15.5 69.5q8 41 40.5 69.5t73.5 28.5q39 0 63.5 -24.5t24.5 -73.5q0 -20 -7 -63.5t-71.5 -131.5t-164.5 -145zM346 -233q123 109 156 217h-17q-41 0 -63.5 28.5t-15.5 69.5q8 41 40.5 69.5t73.5 28.5t65.5 -23.5 t24.5 -74.5q0 -20 -8 -63.5t-72.5 -132.5t-164.5 -144z" />
<glyph unicode="&#x2022;" horiz-adv-x="552" d="M150 446q0 16 7 54.5t59 83.5t120 45q59 0 96 -37t37 -96q0 -17 -2 -25q-12 -66 -66.5 -112t-119.5 -46q-59 0 -95 38t-36 95z" />
<glyph unicode="&#x2026;" horiz-adv-x="1501" d="M88 82q8 41 41 69.5t74 28.5q39 0 63.5 -28.5t16.5 -69.5q-6 -41 -39 -69.5t-76 -28.5q-41 0 -63.5 28.5t-16.5 69.5zM600 82q8 41 41 69.5t74 28.5q39 0 63.5 -28.5t16.5 -69.5q-6 -41 -39 -69.5t-76 -28.5q-41 0 -63.5 28.5t-16.5 69.5zM1112 82q8 41 41 69.5t74 28.5 q39 0 63.5 -28.5t16.5 -69.5q-6 -41 -39 -69.5t-76 -28.5q-41 0 -63.5 28.5t-16.5 69.5z" />
<glyph unicode="&#x202f;" horiz-adv-x="343" />
<glyph unicode="&#x2039;" horiz-adv-x="1024" d="M217 549l752 444l24 -35l-547 -409l402 -410l-35 -37z" />
<glyph unicode="&#x203a;" horiz-adv-x="1024" d="M121 139l551 410l-406 409l37 35l596 -444l-752 -447z" />
<glyph unicode="&#x205f;" horiz-adv-x="429" />
<glyph unicode="&#x2122;" horiz-adv-x="1982" d="M221 1006l80 223h422q133 0 178 30.5t86 124.5h45l-80 -223h-272l-80 -448q-8 -49 -12 -80t-4 -62q0 -59 25.5 -78.5t97.5 -19.5l-9 -43h-405l10 43q94 0 129 43t64 197l77 448h-43q-133 0 -178 -30.5t-86 -124.5h-45zM856 430l8 37q92 0 137.5 45t79.5 170l80 295 q10 39 16.5 71.5t6.5 55.5q0 51 -30 69.5t-101 18.5l8 37h260l92 -631l313 631h234l-8 -37q-102 0 -142.5 -38t-40.5 -177l-20 -295q0 -129 25.5 -172t115.5 -43l-8 -37h-391l6 37q90 0 120 42t30 173l26 342l-313 -625h-21l-96 652l-100 -369q-31 -109 -31 -145 q0 -70 102 -70l-6 -37h-352z" />
<glyph unicode="&#xe000;" horiz-adv-x="716" d="M0 0v717h717v-717h-717z" />
</font>
</defs>
</svg>
